<?xml version="1.0" ?><!DOCTYPE svg  PUBLIC '-//W3C//DTD SVG 1.1//EN'  'http://www.w3.org/Graphics/SVG/1.1/DTD/svg11.dtd'><svg enable-background="new 0 0 512 512" height="512px" id="Logo_Design" version="1.1" viewBox="0 0 512 512" width="512px" xml:space="preserve" xmlns="http://www.w3.org/2000/svg" xmlns:xlink="http://www.w3.org/1999/xlink"><path d="M256,0c141.355,0,256,114.645,256,256S397.355,512,256,512S0,397.355,0,256S114.645,0,256,0  z" fill="#00BCD5" id="Background"/><g id="Logo_Design_1_"><g><path d="M369.143,352.938c0,0.603,0,1.2,0,2.101c0,20.409-51.018,36.916-114.042,36.916    c-63.025,0-114.046-16.507-114.046-36.916c0-0.9,0-1.498,0.301-2.101c-0.301-0.599-0.301-1.201-0.301-1.8    c0-20.707,51.021-37.213,114.046-37.213c63.024,0,114.042,16.506,114.042,37.213C369.143,351.736,369.143,352.339,369.143,352.938    z" fill="#757575"/><path d="M369.143,352.938c0,0.603,0,1.2,0,2.101c0,20.409-51.018,36.916-114.042,36.916c-2.703,0-5.402,0-8.105,0    v-78.029c2.703,0,5.402,0,8.105,0c63.024,0,114.042,16.506,114.042,37.213C369.143,351.736,369.143,352.339,369.143,352.938z" fill="#696969"/><path d="M246.996,313.925c2.703,0,5.402,0,8.105,0c60.925,0,110.443,15.603,113.744,35.113    c-3.301,19.506-52.819,35.112-113.744,35.112c-2.703,0-5.402,0-8.105,0V313.925z" fill="#757575"/><path d="M255.101,309.72c62.984,0,114.042,16.661,114.042,37.218c0,20.552-51.058,37.213-114.042,37.213    s-114.046-16.661-114.046-37.213C141.054,326.381,192.116,309.72,255.101,309.72z" fill="#8D8D8D"/><path d="M255.101,309.72c63.024,0,114.042,16.808,114.042,37.218c0,20.707-51.018,37.213-114.042,37.213    c-2.703,0-5.402,0-8.105,0v-74.13C249.699,309.72,252.397,309.72,255.101,309.72z" fill="#7F7F7F"/><polygon fill="#CCCCCC" points="213.682,238.594 296.515,238.594 296.515,337.632 213.682,337.632   "/><polygon fill="#B8B8B8" points="296.515,291.716 296.515,337.632 246.996,337.632 246.996,291.716   "/><polygon fill="#B8B8B8" points="219.983,244.896 292.013,244.896 292.013,331.33 219.983,331.33   "/><polygon fill="#A6A6A6" points="292.013,291.716 292.013,331.33 246.996,331.33 246.996,291.716   "/><path d="M48.318,6.603h415.364c3.9,0,7.503,3.603,7.503,7.502v270.104c0,4.205-3.603,7.507-7.503,7.507H48.318    c-3.899,0-7.502-3.302-7.502-7.507V14.104C40.816,10.205,44.418,6.603,48.318,6.603z" fill="#A9ABAE"/><path d="M64.824,17.707h389.251c3.302,0,6.004,2.701,6.004,6.002v244.897c0,3.302-2.702,5.699-6.004,5.699H57.925    c-3.306,0-6.004-2.397-6.004-5.699V30.611C51.92,23.709,57.624,17.707,64.824,17.707z" fill="#669999"/><path d="M256,275.808c3.313,0,6.004,2.687,6.004,6.004c0,3.313-2.69,6-6.004,6s-6-2.687-6-6    C250,278.494,252.687,275.808,256,275.808z" fill="#CCCCCC"/><circle cx="256" cy="281.81" fill="#B3B3B3" r="4.203"/><path d="M76.527,25.81h365.544c3.004,0,5.401,2.402,5.401,5.402v229.889c0,3.004-2.397,5.401-5.401,5.401H69.925    c-2.996,0-5.397-2.397-5.397-5.401V37.814C64.527,31.211,69.925,25.81,76.527,25.81z" fill="#336666"/><rect fill="#E6E6E6" height="200.178" width="244.598" x="101.138" y="54.322"/><rect fill="#66FFCC" height="200.147" width="20.923" x="70.527" y="54.322"/><rect fill="#E6E6E6" height="198.376" width="50.72" x="352.938" y="55.822"/><rect fill="#E6E6E6" height="200.147" width="20.923" x="415.063" y="54.322"/><rect fill="#CCCCCC" height="56.124" width="43.816" x="356.841" y="60.023"/><rect fill="#CCCCCC" height="32.412" width="43.816" x="356.841" y="122.749"/><rect fill="#CCCCCC" height="20.477" width="43.747" x="356.841" y="163.565"/><rect fill="#CCCCCC" height="56.722" width="43.816" x="356.841" y="190.875"/><path d="M417.465,60.023h6.603v6.603h-6.603V60.023z M427.067,242.194h6.603v6.902h-6.603V242.194z     M417.465,242.194h6.603v6.902h-6.603V242.194z M427.067,233.492h6.603v6.902h-6.603V233.492z M417.465,233.492h6.603v6.902    h-6.603V233.492z M427.067,224.789h6.603v6.902h-6.603V224.789z M417.465,224.789h6.603v6.902h-6.603V224.789z M427.067,216.083    h6.603v6.904h-6.603V216.083z M417.465,216.083h6.603v6.904h-6.603V216.083z M427.067,207.682h6.603v6.603h-6.603V207.682z     M417.465,207.682h6.603v6.603h-6.603V207.682z M427.067,198.977h6.603v6.603h-6.603V198.977z M417.465,198.977h6.603v6.603    h-6.603V198.977z M427.067,190.274h6.603v6.603h-6.603V190.274z M417.465,190.274h6.603v6.603h-6.603V190.274z M427.067,181.571    h6.603v6.603h-6.603V181.571z M417.465,181.571h6.603v6.603h-6.603V181.571z M427.067,172.868h6.603v6.603h-6.603V172.868z     M417.465,172.868h6.603v6.603h-6.603V172.868z M427.067,164.163h6.603v6.603h-6.603V164.163z M417.465,164.163h6.603v6.603    h-6.603V164.163z M427.067,155.46h6.603v6.603h-6.603V155.46z M417.465,155.46h6.603v6.603h-6.603V155.46z M427.067,146.757h6.603    v6.603h-6.603V146.757z M417.465,146.757h6.603v6.603h-6.603V146.757z M427.067,138.054h6.603v6.603h-6.603V138.054z     M417.465,138.054h6.603v6.603h-6.603V138.054z M427.067,129.352h6.603v6.603h-6.603V129.352z M417.465,129.352h6.603v6.603    h-6.603V129.352z M427.067,120.646h6.603v6.603h-6.603V120.646z M417.465,120.646h6.603v6.603h-6.603V120.646z M427.067,111.943    h6.603v6.603h-6.603V111.943z M417.465,111.943h6.603v6.603h-6.603V111.943z M427.067,103.241h6.603v6.901h-6.603V103.241z     M417.465,103.241h6.603v6.901h-6.603V103.241z M427.067,94.538h6.603v6.902h-6.603V94.538z M417.465,94.538h6.603v6.902h-6.603    V94.538z M427.067,85.833h6.603v6.904h-6.603V85.833z M417.465,85.833h6.603v6.904h-6.603V85.833z M427.067,77.13h6.603v6.903    h-6.603V77.13z M417.465,77.13h6.603v6.903h-6.603V77.13z M427.067,68.427h6.603v6.902h-6.603V68.427z M417.465,68.427h6.603    v6.902h-6.603V68.427z M427.067,60.023h6.603v6.603h-6.603V60.023z" fill="#33CC99"/><g><rect fill="#999999" height="16.529" width="347.584" x="82.234" y="30.312"/><circle cx="93.636" cy="38.414" fill="#B3B3B3" r="4.502"/><path d="M115.247,33.912c2.483,0,4.502,2.017,4.502,4.502c0,2.487-2.019,4.502-4.502,4.502     c-2.487,0-4.502-2.015-4.502-4.502C110.745,35.929,112.76,33.912,115.247,33.912z" fill="#B3B3B3"/><path d="M136.552,33.912c2.487,0,4.502,2.017,4.502,4.502c0,2.487-2.015,4.502-4.502,4.502     c-2.483,0-4.502-2.015-4.502-4.502C132.05,35.929,134.069,33.912,136.552,33.912z" fill="#B3B3B3"/><path d="M158.159,33.912c2.491,0,4.502,2.017,4.502,4.502c0,2.487-2.011,4.502-4.502,4.502     c-2.483,0-4.498-2.015-4.498-4.502C153.661,35.929,155.676,33.912,158.159,33.912z" fill="#B3B3B3"/><path d="M179.473,33.912c2.483,0,4.502,2.017,4.502,4.502c0,2.487-2.019,4.502-4.502,4.502     c-2.491,0-4.502-2.015-4.502-4.502C174.971,35.929,176.981,33.912,179.473,33.912z" fill="#B3B3B3"/><circle cx="200.778" cy="38.414" fill="#B3B3B3" r="4.502"/><path d="M222.385,33.912c2.487,0,4.502,2.017,4.502,4.502c0,2.487-2.015,4.502-4.502,4.502     c-2.483,0-4.502-2.015-4.502-4.502C217.883,35.929,219.902,33.912,222.385,33.912z" fill="#B3B3B3"/><circle cx="243.694" cy="38.414" fill="#B3B3B3" r="4.502"/><circle cx="265.004" cy="38.414" fill="#B3B3B3" r="4.502"/><circle cx="286.611" cy="38.414" fill="#B3B3B3" r="4.502"/><circle cx="307.921" cy="38.414" fill="#B3B3B3" r="4.502"/><path d="M329.23,33.912c2.482,0,4.502,2.017,4.502,4.502c0,2.487-2.02,4.502-4.502,4.502     c-2.487,0-4.503-2.015-4.503-4.502C324.728,35.929,326.743,33.912,329.23,33.912z" fill="#B3B3B3"/><circle cx="350.837" cy="38.414" fill="#B3B3B3" r="4.502"/><circle cx="372.146" cy="38.414" fill="#B3B3B3" r="4.502"/><circle cx="393.753" cy="38.414" fill="#B3B3B3" r="4.502"/><circle cx="415.063" cy="38.414" fill="#B3B3B3" r="4.502"/></g><g><polygon fill="#33CC99" points="223.59,95.736 249.096,110.443 274.306,125.148 274.306,154.561 274.306,183.971      249.096,198.678 223.59,213.383 198.376,198.678 172.87,183.971 172.87,154.561 172.87,125.148 198.376,110.443    "/><polygon fill="#2EB88A" points="223.59,95.736 249.096,110.443 274.306,125.148 274.306,151.559 172.87,151.559 172.87,125.148      198.376,110.443    "/><rect fill="#CC3300" height="6.816" width="6.777" x="168.368" y="180.37"/><polygon fill="#CC3300" points="171.666,182.171 271.908,182.171 271.908,185.473 171.666,185.473    "/><rect fill="#CC3300" height="6.816" width="6.781" x="270.406" y="180.37"/><polygon fill="#CCCCCC" points="173.167,181.27 180.071,187.274 176.77,204.08 166.565,204.08 163.264,187.274 170.167,181.27      170.167,195.977 173.167,195.977    "/><path d="M166.268,204.08h10.926c1.16,0,2.1,1.878,2.1,4.197l0,0c0,2.318-0.94,4.197-2.1,4.197h-10.926     c-1.164,0-2.104-1.878-2.104-4.197l0,0C164.163,205.958,165.104,204.08,166.268,204.08z" fill="#B3B3B3"/><rect fill="#4D4D4D" height="15.703" width="2.947" x="170.167" y="180.37"/><circle cx="171.666" cy="195.976" fill="#4D4D4D" r="3.001"/><path d="M223.289,69.326L223.289,69.326h-0.603h-0.602h-0.297c-0.899,0.301-1.803-0.6-1.803-1.5     c0-0.899,0.904-1.5,1.803-1.5h0.297h0.602h0.603l0,0h0.599h0.598h0.603h0.301h0.598h0.301c0.9,0,1.803,0.9,1.803,1.799     c-0.301,0.601-0.903,1.502-1.803,1.502h-0.301h-0.598l-0.603-0.301h-0.598h-0.301H223.289z M212.184,66.927     c0.899,0,1.498,0.601,1.799,1.5c0,0.899-0.603,1.5-1.498,1.801l0,0h-0.603h-0.603h-0.297l-0.599,0.299h-0.603h-0.301     c-0.899,0.301-1.799-0.299-1.799-1.201c-0.301-0.899,0.301-1.799,1.197-1.799h0.301l0.602-0.301h0.603h0.599h0.598     L212.184,66.927L212.184,66.927z M199.578,69.627c0.899-0.301,1.803,0.299,1.803,0.9c0.297,0.899,0,1.801-0.904,2.1h-0.301     l-0.598,0.301h-0.599l-0.301,0.299h-0.603l-0.598,0.301l0,0c-0.9,0.299-1.803-0.301-2.101-1.201     c-0.301-0.601,0.297-1.5,1.201-1.801l0,0l0.603-0.299h0.599l0.297-0.301h0.603l0.603-0.299H199.578z M187.573,73.829     c0.603-0.299,1.799,0,2.101,0.901c0.301,0.9,0,1.799-0.9,2.101h-0.301l-0.598,0.299l-0.301,0.301l-0.603,0.299h-0.297     l-0.599,0.301l0,0c-0.904,0.601-1.803,0-2.101-0.6c-0.301-0.902,0-1.801,0.595-2.103l0,0l0.602-0.299l0.603-0.299l0.301-0.301     h0.599l0.297-0.299L187.573,73.829z M176.167,80.132c0.904-0.601,1.799-0.301,2.401,0.299c0.301,0.901,0,1.801-0.602,2.1     l-0.297,0.301l-0.598,0.299l-0.301,0.301l-0.301,0.299l-0.603,0.301l-0.297,0.299h-0.301c-0.598,0.601-1.502,0.301-2.1-0.299     c-0.599-0.901-0.297-1.801,0.301-2.401h0.297l0.301-0.299l0.603-0.301l0.301-0.299l0.598-0.301l0.297-0.299H176.167z      M165.966,87.634c0.599-0.6,1.799-0.6,2.101,0.301c0.598,0.601,0.598,1.5,0,2.101l-0.301,0.299l-0.301,0.301l-0.301,0.299     l-0.598,0.301l-0.297,0.299l-0.301,0.301l-0.301,0.299c-0.602,0.601-1.502,0.601-2.1,0c-0.603-0.899-0.603-1.801,0-2.401h0.301     l0.297-0.601l0.301-0.299l0.599-0.299l0.301-0.301l0.301-0.299L165.966,87.634z M156.962,96.638c0.598-0.601,1.498-0.601,2.1,0     c0.603,0.6,0.9,1.5,0.301,2.1l0,0l-0.602,0.601l-0.301,0.299l-0.301,0.301l-0.297,0.6l-0.301,0.299l-0.297,0.301     c-0.603,0.601-1.502,0.899-2.101,0.299c-0.603-0.601-0.904-1.5-0.301-2.402l0.301-0.299l0.297-0.299l0.301-0.301l0.297-0.601     l0.603-0.299l0.301-0.301V96.638z M149.159,107.142c0.598-0.901,1.502-1.201,2.397-0.6c0.603,0.299,0.904,1.5,0.301,2.1     l-0.301,0.601l-0.297,0.299v0.6l-0.301,0.301l-0.297,0.299l-0.301,0.601l0,0c-0.603,0.6-1.502,0.901-2.101,0.6     c-0.904-0.6-1.205-1.5-0.603-2.1l0,0l0.301-0.601l0.301-0.301l0.301-0.598l0.297-0.601v-0.301L149.159,107.142z M143.155,118.247     c0.301-0.902,1.201-1.201,2.101-0.902c0.904,0.601,1.205,1.502,0.904,2.103l-0.301,0.598l-0.301,0.301v0.601l-0.301,0.6     l-0.301,0.299v0.601l0,0c-0.297,0.899-1.498,1.201-2.101,0.899c-0.896-0.299-1.197-1.199-0.896-2.1l0,0l0.297-0.601v-0.299     l0.301-0.6l0.297-0.601v-0.299L143.155,118.247z M138.653,130.251c0.301-0.601,1.201-1.201,2.101-0.899     c0.903,0.299,1.205,0.899,1.205,1.799h-0.301v0.601v0.601l-0.301,0.301v0.598l-0.301,0.601v0.301     c-0.301,0.899-1.201,1.5-1.799,1.201c-0.904-0.301-1.502-0.901-1.201-1.801v-0.601l0.297-0.299v-0.601v-0.601l0.301-0.6V130.251     L138.653,130.251z M136.251,142.855c0-0.899,0.904-1.5,1.803-1.201c0.9,0,1.502,0.902,1.201,1.801v0.299v0.6v0.301l-0.301,0.601     v0.601v0.598l0,0c0,0.902-0.9,1.502-1.799,1.502c-0.603-0.301-1.502-0.901-1.201-1.801l0,0v-0.6v-0.601v-0.601v-0.6l0.297-0.299     V142.855z M135.355,155.762c0-0.902,0.896-1.502,1.498-1.502c0.899,0,1.799,0.601,1.799,1.502v0.299v0.601v0.601v0.6v0.601v0.299     c0,0.901-0.599,1.801-1.498,1.801c-0.904,0-1.502-0.601-1.502-1.5v-0.6v-0.601l-0.297-0.6v-0.299v-0.601V155.762z      M136.552,168.665c0-0.899,0.301-1.799,1.201-1.799c0.9-0.301,1.804,0.299,1.804,1.199l0.297,0.6v0.301v0.601l0.301,0.601v0.598     v0.301c0.297,0.899-0.301,1.801-1.201,1.801c-0.9,0.299-1.799-0.301-1.799-1.201v-0.301l-0.301-0.601v-0.598v-0.601l-0.301-0.601     V168.665z M139.557,180.971c-0.301-0.601,0-1.5,0.896-1.801c0.903-0.299,1.803,0,2.104,0.902v0.299l0.297,0.601v0.299l0.301,0.6     v0.601l0.301,0.301v0.299c0.301,0.899,0,1.801-0.899,2.1c-0.9,0.301-1.803-0.299-2.104-0.899v-0.301l-0.297-0.598v-0.601     l-0.301-0.301v-0.601l-0.297-0.6V180.971z M144.059,192.975c-0.301-0.601,0-1.799,0.896-2.101c0.603-0.299,1.803,0,2.101,0.899     l0,0l0.301,0.601l0.301,0.601l0.301,0.301v0.6l0.301,0.299l0.301,0.301c0.297,0.598,0,1.5-0.904,2.1     c-0.602,0.299-1.498,0-2.1-0.6v-0.301l-0.301-0.601l-0.301-0.299v-0.601l-0.297-0.299l-0.301-0.6L144.059,192.975z      M150.661,204.08c-0.603-0.601-0.301-1.5,0.297-2.101c0.9-0.6,1.803-0.301,2.104,0.299l0.297,0.301l0.301,0.299l0.297,0.6     l0.301,0.301l0.301,0.601l0.301,0.299v0.299c0.599,0.601,0.599,1.502-0.301,2.103c-0.603,0.601-1.498,0.299-2.1-0.301     l-0.301-0.299l-0.301-0.301l-0.301-0.6l-0.297-0.299l-0.301-0.601l-0.297-0.299V204.08z M158.46,214.285     c-0.599-0.601-0.599-1.801,0.301-2.402c0.602-0.601,1.502-0.601,2.1,0.299l0,0l0.301,0.301l0.603,0.299l0.297,0.601l0.301,0.301     l0.297,0.299l0.301,0.301c0.603,0.598,0.603,1.5,0,2.399c-0.599,0.601-1.498,0.601-2.101-0.299l-0.301-0.301l-0.598-0.299     l-0.297-0.301l-0.301-0.299l-0.301-0.601l-0.301-0.299H158.46z M167.766,222.987c-0.603-0.6-0.603-1.502-0.301-2.1     c0.603-0.902,1.799-0.902,2.402-0.301l0.301,0.301l0.301,0.299l0.598,0.299l0.297,0.301l0.301,0.299l0.602,0.301l0,0     c0.603,0.6,0.9,1.5,0.301,2.401c-0.603,0.599-1.502,0.599-2.1,0.299h-0.301l-0.301-0.601l-0.301-0.299l-0.599-0.301l-0.301-0.299     l-0.297-0.301L167.766,222.987z M178.268,230.49c-0.599-0.601-0.9-1.5-0.599-2.4c0.599-0.6,1.502-0.901,2.101-0.301h0.598     l0.301,0.301l0.301,0.299l0.603,0.301l0.297,0.299h0.599v0.299c0.904,0.301,1.205,1.201,0.603,2.103     c-0.301,0.601-1.201,0.9-2.101,0.601l0,0l-0.603-0.301l-0.297-0.299l-0.599-0.301l-0.301-0.299l-0.603-0.301H178.268z      M189.674,236.192c-0.603-0.301-1.201-1.201-0.9-2.101c0.297-0.901,1.201-1.201,2.101-0.901l0.301,0.301h0.598l0.301,0.299h0.603     l0.599,0.301l0.297,0.299h0.301c0.603,0.301,1.201,1.201,0.904,2.101c-0.301,0.601-1.205,1.201-2.101,0.901l0,0l-0.603-0.301     l-0.603-0.299h-0.297l-0.599-0.301l-0.602-0.299H189.674z M201.979,240.094c-0.899,0-1.502-0.902-1.201-1.801     c0-0.9,0.899-1.5,1.799-1.201h0.602l0.301,0.301h0.599l0.598,0.299h0.603h0.301c0.899,0.301,1.498,1.201,1.197,2.101     c0,0.601-0.896,1.201-1.799,1.201l-0.598-0.299h-0.301h-0.599l-0.602-0.301h-0.603L201.979,240.094z M214.586,242.494     c-0.904-0.299-1.502-0.899-1.502-1.799c0-0.901,0.9-1.502,1.799-1.502h0.301h0.598l0.301,0.301h0.603h0.599h0.598l0,0     c0.904,0,1.502,0.9,1.502,1.801c0,0.601-0.899,1.5-1.799,1.199l0,0h-0.599h-0.603h-0.603h-0.301h-0.599H214.586z      M227.188,242.795c-0.9,0-1.498-0.601-1.498-1.5c0-0.901,0.598-1.801,1.498-1.801h0.301h0.602h0.599h0.598h0.603h0.301     c0.896-0.301,1.498,0.601,1.799,1.201c0,0.9-0.603,1.799-1.502,1.799h-0.599h-0.603h-0.301l-0.598,0.301h-0.599H227.188z      M239.791,241.295c-0.599,0-1.498-0.601-1.799-1.201c0-0.902,0.603-1.801,1.201-2.101h0.599h0.603l0.301-0.301h0.603h0.599     l0.598-0.299c0.603,0,1.502,0.299,1.799,1.201c0,0.899-0.297,1.799-1.197,2.1h-0.603h-0.598l-0.301,0.299h-0.599h-0.602     L239.791,241.295z M252.397,237.994c-0.899,0.299-1.799-0.301-2.101-1.201c-0.297-0.601,0-1.5,0.9-1.801h0.301l0.301-0.299     l0.598-0.301h0.301l0.598-0.299l0.603-0.301h0.301c0.599-0.299,1.498,0,2.101,0.901c0.297,0.9-0.301,1.799-0.904,2.101h-0.598     l-0.297,0.299l-0.603,0.301h-0.603l-0.301,0.299h-0.599V237.994z M264.104,232.891c-0.903,0.299-1.803,0-2.101-0.899     c-0.603-0.601-0.301-1.502,0.599-2.103l0,0l0.599-0.299l0.301-0.301l0.603-0.299h0.297l0.603-0.299l0.302-0.301     c0.598-0.299,1.498,0,2.101,0.601c0.297,0.899,0,1.801-0.603,2.1l-0.302,0.301l-0.599,0.299l-0.301,0.301l-0.599,0.299h-0.301     l-0.599,0.299V232.891z M274.908,225.987c-0.899,0.601-1.804,0.301-2.402-0.299c-0.301-0.9-0.301-1.801,0.599-2.402l0,0     l0.302-0.299l0.603-0.301l0.297-0.299l0.301-0.301l0.603-0.299l0.297-0.301c0.603-0.598,1.503-0.299,2.101,0.301     c0.603,0.601,0.603,1.801-0.297,2.101l-0.301,0.301l-0.302,0.299l-0.599,0.601l-0.301,0.299l-0.599,0.301L274.908,225.987     L274.908,225.987z M284.511,217.586c-0.599,0.598-1.498,0.598-2.101,0c-0.599-0.601-0.599-1.502,0-2.103l0.301-0.299l0.302-0.601     l0.297-0.299l0.603-0.301l0.297-0.299l0.302-0.301v-0.299c0.603-0.6,1.502-0.6,2.401,0c0.599,0.601,0.599,1.799,0,2.4l0,0     l-0.603,0.301l-0.297,0.299l-0.302,0.601l-0.301,0.301l-0.599,0.299L284.511,217.586z M293.214,207.981     c-0.599,0.9-1.498,0.9-2.402,0.299c-0.599-0.598-0.899-1.5-0.297-2.101l0.297-0.299l0.302-0.301l0.301-0.601l0.302-0.299     l0.297-0.299l0.301-0.601l0,0c0.603-0.901,1.502-0.901,2.402-0.601c0.598,0.601,0.598,1.5,0.301,2.4h-0.301l-0.302,0.6     l-0.301,0.301l-0.298,0.601l-0.301,0.299l-0.301,0.301V207.981z M300.117,197.178c-0.599,0.9-1.502,1.199-2.101,0.601     c-0.899-0.301-1.201-1.201-0.603-2.103l0,0l0.302-0.601l0.301-0.299v-0.601l0.302-0.299l0.297-0.6v-0.301     c0.603-0.601,1.502-0.9,2.401-0.601c0.603,0.301,0.899,1.201,0.603,2.103l-0.301,0.299v0.299l-0.302,0.601l-0.301,0.601     l-0.298,0.301L300.117,197.178L300.117,197.178z M305.519,185.772c-0.301,0.601-1.2,1.201-2.101,0.902     c-0.899-0.301-1.2-1.201-0.899-2.103v-0.299l0.302-0.601v-0.299l0.297-0.601v-0.301l0.301-0.601v-0.299     c0.302-0.902,1.201-1.201,2.101-0.902c0.899,0.301,1.201,1.201,0.899,1.801v0.301l-0.297,0.601v0.598l-0.301,0.301v0.601     l-0.302,0.6V185.772z M309.121,173.167c-0.301,0.899-1.2,1.5-1.803,1.201c-0.9,0-1.498-0.899-1.498-1.801l0.301-0.299v-0.6     v-0.601l0.297-0.301v-0.598v-0.601l0,0c0.302-0.902,1.201-1.502,2.101-1.201c0.603,0,1.201,0.899,1.201,1.801l0,0l-0.297,0.598     v0.601v0.301l-0.302,0.6v0.601V173.167z M310.921,160.563c-0.302,0.899-0.9,1.5-1.8,1.5s-1.502-0.9-1.502-1.799v-0.301v-0.601     l0.302-0.299v-0.6v-0.601v-0.6l0,0c0-0.9,0.598-1.5,1.502-1.5c0.899,0,1.498,0.6,1.498,1.5l0,0v0.6v0.601v0.6v0.601v0.601     V160.563z M310.619,147.657c0.302,0.902-0.297,1.801-1.196,1.801c-0.904,0-1.804-0.6-1.804-1.5v-0.6v-0.301v-0.601l-0.301-0.598     v-0.601v-0.301c0-0.899,0.603-1.801,1.502-1.801s1.502,0.601,1.502,1.502l0.297,0.299v0.601v0.6v0.601v0.601V147.657z      M308.82,135.052c0.301,0.902-0.302,1.801-1.201,1.801c-0.899,0.299-1.498-0.301-1.799-1.201v-0.299l-0.302-0.601v-0.301     l-0.301-0.601v-0.601v-0.598l0,0c-0.297-0.902,0-1.502,0.903-1.801c0.899-0.301,1.8,0.299,2.101,0.899v0.301v0.601l0.297,0.299     v0.601v0.601l0.302,0.6V135.052z M305.218,122.749c0.301,0.899-0.297,1.799-0.899,2.1c-0.9,0.299-1.8-0.301-2.101-0.901l0,0     l-0.302-0.601v-0.598l-0.297-0.301l-0.301-0.601v-0.299l-0.302-0.6c-0.301-0.601,0-1.801,0.899-2.101     c0.603-0.301,1.804,0,2.101,0.9v0.6l0.302,0.299l0.301,0.601v0.301l0.302,0.601L305.218,122.749L305.218,122.749z      M299.816,111.044c0.301,0.899,0,1.799-0.599,2.101c-0.899,0.6-1.804,0.299-2.402-0.601l0,0v-0.299l-0.301-0.6l-0.297-0.301     l-0.302-0.601l-0.301-0.299l-0.302-0.301c-0.297-0.899-0.297-1.799,0.603-2.399c0.599-0.301,1.8,0,2.101,0.601l0.302,0.598     l0.297,0.301l0.301,0.601l0.302,0.299l0.301,0.601v0.301H299.816z M292.615,100.54c0.599,0.601,0.301,1.5-0.302,2.101     c-0.598,0.601-1.799,0.299-2.101-0.301l-0.301-0.299l-0.297-0.299l-0.302-0.601l-0.301-0.301l-0.599-0.299l-0.301-0.6l0,0     c-0.603-0.601-0.302-1.5,0.301-2.101c0.599-0.601,1.498-0.601,2.101,0v0.299l0.599,0.301l0.301,0.299l0.302,0.601l0.297,0.299     l0.301,0.301L292.615,100.54z M283.912,90.935c0.599,0.601,0.899,1.5,0.297,2.101c-0.598,0.601-1.799,0.601-2.397,0h-0.301     l-0.302-0.299l-0.301-0.601l-0.297-0.299l-0.603-0.301l-0.302-0.299v-0.301c-0.899-0.6-0.899-1.5-0.297-2.1     c0.599-0.601,1.498-0.601,2.401,0l0,0l0.599,0.299l0.301,0.601l0.302,0.301l0.297,0.299l0.603,0.301V90.935z M274.306,82.531     c0.603,0.601,0.903,1.502,0.301,2.402c-0.598,0.601-1.502,0.899-2.101,0.301h-0.301l-0.297-0.301l-0.603-0.299l-0.302-0.301     l-0.297-0.299l-0.603-0.301l-0.301-0.299c-0.599-0.301-0.899-1.5-0.298-2.101c0.298-0.6,1.201-0.901,2.101-0.6l0.302,0.299     l0.297,0.301l0.603,0.299l0.297,0.301l0.603,0.299l0.302,0.299H274.306z M263.201,75.929c0.903,0.601,1.2,1.502,0.903,2.103     c-0.603,0.9-1.502,1.199-2.401,0.9v-0.299h-0.302l-0.598-0.301l-0.302-0.299l-0.603-0.301h-0.297L259,77.431     c-0.599-0.301-1.201-1.201-0.599-2.103c0.302-0.9,1.201-1.199,2.101-0.599h0.302l0.598,0.299l0.302,0.299h0.599l0.301,0.301     L263.201,75.929L263.201,75.929z M251.498,71.127c0.899,0,1.201,0.9,0.899,1.801c-0.297,0.9-1.201,1.201-1.799,0.9h-0.301H250     l-0.603-0.299h-0.603l-0.297-0.301h-0.599l-0.301-0.299c-0.903-0.301-1.205-0.901-1.205-1.801c0.301-0.899,1.205-1.5,2.104-1.201     l0.297,0.301h0.603L250,70.527h0.297l0.599,0.301h0.603V71.127z M239.192,67.826c0.9,0,1.502,0.9,1.201,1.801     c0,0.9-0.9,1.5-1.799,1.201h-0.301h-0.603l-0.598-0.301h-0.297h-0.603l-0.603-0.299l0,0c-0.896,0-1.498-0.902-1.498-1.801     c0.301-0.601,0.9-1.201,1.799-1.201h0.301h0.301l0.599,0.301h0.598h0.603l0.603,0.299H239.192z" fill="#CCCCCC"/></g><path d="M463.682,0H48.318c-7.799,0-14.104,6.303-14.104,14.104v270.104c0,8.104,6.305,14.406,14.104,14.406    H207.08v7.803c-24.008,3.603-72.627,14.406-72.627,40.52c0,0.598,0,1.498,0,2.101c0,0.598,0,1.497,0,2.1c0,0.599,0,1.201,0,1.8    c0,0.603,0,1.2,0,2.101c0,17.108,21.606,27.012,35.113,31.812c23.711,8.104,52.222,11.405,77.13,12.004c3.004,0,5.703,0,8.406,0    c26.711,0,57.021-2.698,82.832-11.101c14.105-4.803,38.113-14.707,38.113-32.715c0-0.9-0.301-1.498-0.301-2.101    c0-0.599,0.301-1.201,0.301-1.8c0-0.603-0.301-1.502-0.301-2.1c0-0.603,0.301-1.503,0.301-2.101    c0-26.113-48.916-36.917-72.929-40.52v-7.803h160.564c7.804,0,14.105-6.302,14.105-14.406V14.104    C477.787,6.303,471.485,0,463.682,0z M471.185,284.209c0,4.205-3.603,7.507-7.503,7.507H296.515v20.707    c42.619,5.401,72.628,18.907,72.628,34.515c0,0.598,0,1.498-0.298,2.101c0.298,0.598,0.298,1.497,0.298,2.1c0,0.599,0,1.201,0,1.8    c0,0.603,0,1.2,0,2.101c0,20.409-51.018,36.916-114.042,36.916c-2.703,0-5.402,0-8.105,0    c-59.121-1.201-105.941-17.406-105.941-36.916c0-0.9,0-1.498,0.301-2.101c-0.301-0.599-0.301-1.201-0.301-1.8    c0-0.603,0-1.502,0.301-2.1c-0.301-0.603-0.301-1.503-0.301-2.101c0-15.607,30.31-29.113,72.628-34.515v-20.707H48.318    c-3.899,0-7.502-3.302-7.502-7.507V14.104c0-3.899,3.603-7.502,7.502-7.502h415.364c3.9,0,7.503,3.603,7.503,7.502V284.209z" fill="#4E5A62"/></g><g><path d="M69.627,416.264c30.912,0,62.122,0,93.335,0s62.427,0,93.636,0c31.213,0,62.427,0,93.64,0    c30.912,0,62.121,0,93.636,0c5.101,6.899,10.201,13.804,15.607,20.707c5.101,6.903,10.2,13.506,15.305,20.406    c5.402,6.903,10.503,13.808,15.607,20.711c5.101,6.899,10.502,13.502,15.603,20.406c-41.716,0-83.432,0-125.146,0    c-41.716,0-83.436,0-124.85,0c-41.715,0-83.431,0-125.146,0c-41.72,0-83.134,0-124.854,0c5.406-6.904,10.506-13.507,15.908-20.406    c5.401-6.903,10.502-13.808,15.908-20.711c5.402-6.9,10.502-13.503,15.908-20.406C58.82,430.067,64.226,423.163,69.627,416.264z" fill="#E6E6E6"/><path d="M7.803,497.293h496.393c1.503,0,2.703,2.401,2.703,4.804l0,0c0,2.698-1.2,4.803-2.703,4.803H7.803    c-1.502,0-2.699-2.104-2.699-4.803l0,0C5.104,499.694,6.301,497.293,7.803,497.293z" fill="#CCCCCC"/><path d="M7.803,497.896c-1.502,0-2.1,3.301-2.1,4.201c0,1.2,0.598,4.2,2.1,4.2h496.393c1.503,0,2.101-3,2.101-4.2    c0-0.9-0.598-4.201-2.101-4.201H7.803z" fill="#B3B3B3"/><path d="M249.096,416.264h7.502c31.213,0,62.427,0,93.64,0c30.912,0,62.121,0,93.636,0    c5.101,6.899,10.201,13.804,15.607,20.707c5.101,6.903,10.2,13.506,15.305,20.406c5.402,6.903,10.503,13.808,15.607,20.711    c5.101,6.899,10.502,13.502,15.603,20.406c-41.716,0-83.432,0-125.146,0c-41.716,0-83.436,0-124.85,0h-6.904V416.264z" fill="#CFCFCF"/><path d="M43.816,477.485c24.008,0,47.72,0,71.732,0c-1.205,3.004-2.703,5.703-3.903,8.406    c-24.611,0-49.218,0-73.829,0C39.615,482.887,41.715,480.188,43.816,477.485z" fill="#CCCCCC"/><path d="M120.645,477.485c7.807,0,15.606,0,23.414,0.302c-1.205,2.702-2.402,5.401-3.606,8.401    c-7.799,0-15.904,0-23.708-0.297C117.946,483.188,119.146,480.489,120.645,477.485z" fill="#CCCCCC"/><path d="M147.657,477.787c7.804,0,15.607,0,23.109,0c-0.899,2.702-1.799,5.702-2.397,8.401    c-8.104,0-15.908,0-24.013,0C145.255,483.188,146.46,480.489,147.657,477.787z" fill="#CCCCCC"/><path d="M174.669,477.787c7.799,0,15.606,0,23.109,0c-0.599,3-1.201,5.702-1.803,8.702    c-8.101,0-15.904-0.301-24.009-0.301C172.87,483.489,173.766,480.489,174.669,477.787z" fill="#CCCCCC"/><path d="M201.678,477.787c7.803,0,15.31,0.301,23.109,0.301c-0.301,2.699-0.899,5.703-1.197,8.401    c-8.108,0-15.908,0-23.711,0C200.176,483.489,200.778,480.787,201.678,477.787z" fill="#CCCCCC"/><path d="M228.69,478.088c7.803,0,15.305,0,23.109,0c-0.301,3-0.301,5.703-0.603,8.703    c-7.799,0-15.904,0-23.707-0.302C227.791,483.791,228.092,480.787,228.69,478.088z" fill="#CCCCCC"/><path d="M255.699,478.088c7.502,0,15.305,0.297,23.109,0.297c0,2.703,0,5.703,0,8.406c-7.804,0-15.904,0-23.707,0    C255.101,483.791,255.397,481.088,255.699,478.088z" fill="#CCCCCC"/><path d="M282.711,478.385c7.502,0,15.306,0,23.109,0c0.301,3.004,0.598,5.703,0.899,8.707    c-8.104,0-15.908,0-24.009-0.301C282.711,484.088,282.41,481.088,282.711,478.385z" fill="#CCCCCC"/><path d="M309.72,478.385c7.502,0,15.306,0,23.108,0.302c0.302,2.702,0.904,5.702,1.502,8.405    c-8.104,0-15.907,0-24.008,0C310.021,484.088,309.72,481.389,309.72,478.385z" fill="#CCCCCC"/><path d="M336.732,478.687c7.502,0,15.306,0,23.108,0c0.599,3,1.498,5.702,2.101,8.702    c-8.104,0-15.908,0-23.711-0.297C337.632,484.389,337.033,481.389,336.732,478.687z" fill="#CCCCCC"/><path d="M363.74,478.687c7.507,0,15.306,0,23.109,0c0.903,3,1.803,6.004,2.703,8.702c-7.804,0-15.908,0-23.712,0    C364.941,484.389,364.343,481.687,363.74,478.687z" fill="#CCCCCC"/><path d="M390.452,478.687c24.008,0.301,48.021,0.301,72.029,0.301c1.502,2.699,3.301,5.703,4.799,8.703    c-24.606,0-49.218,0-73.828-0.302C392.553,484.69,391.352,481.687,390.452,478.687z" fill="#CCCCCC"/><path d="M113.146,466.682c7.201,0,14.703,0,22.209,0c-1.506,2.703-3.004,5.703-4.502,8.402    c-7.506,0-15.306,0-22.812,0C109.54,472.385,111.343,469.385,113.146,466.682z" fill="#CCCCCC"/><path d="M138.954,466.682c7.506,0,15.004,0,22.51,0c-1.201,3-2.402,5.703-3.603,8.703    c-7.803,0-15.606-0.301-23.109-0.301C135.954,472.385,137.753,469.385,138.954,466.682z" fill="#CCCCCC"/><path d="M165.063,466.682c7.506,0,15.008,0,22.51,0.302c-0.899,2.698-2.101,5.401-3.004,8.401    c-7.799,0-15.306,0-23.105,0C162.661,472.385,163.866,469.682,165.063,466.682z" fill="#CCCCCC"/><path d="M191.176,466.983c7.502,0,15.004,0,22.506,0c-0.9,2.698-1.498,5.703-2.402,8.401    c-7.498,0-15.305,0-23.104,0C189.071,472.687,190.276,469.682,191.176,466.983z" fill="#CCCCCC"/><path d="M217.285,466.983c7.201,0,14.707,0,22.209,0c-0.301,3-0.899,5.703-1.502,8.703    c-7.502,0-15.306,0-23.109-0.302C215.782,472.687,216.385,469.682,217.285,466.983z" fill="#CCCCCC"/><path d="M243.096,466.983c7.502,0,15.004,0,22.506,0.297c-0.297,2.703-0.599,5.703-0.599,8.406    c-7.803,0-15.606,0-23.108,0C242.192,472.687,242.795,469.983,243.096,466.983z" fill="#CCCCCC"/><path d="M269.205,467.28c7.502,0,15.004,0,22.511,0c0,3.004,0,5.703,0,8.707c-7.804,0-15.306-0.301-23.109-0.301    C268.904,472.983,268.904,469.983,269.205,467.28z" fill="#CCCCCC"/><path d="M295.313,467.28c7.507,0,15.009,0,22.511,0c0,3.004,0.301,6.004,0.599,8.707c-7.804,0-15.306,0-23.109,0    C295.313,472.983,295.313,470.284,295.313,467.28z" fill="#CCCCCC"/><path d="M321.427,467.28c7.502,0,14.703,0.302,22.209,0.302c0.599,2.702,0.899,5.702,1.498,8.702    c-7.804-0.297-15.306-0.297-23.108-0.297C322.025,473.284,321.427,470.284,321.427,467.28z" fill="#CCCCCC"/><path d="M347.234,467.582c7.502,0,15.008,0,22.511,0c0.899,3.004,1.502,5.702,2.1,8.702    c-7.502,0-15.305,0-22.807,0C348.436,473.284,347.837,470.284,347.234,467.582z" fill="#CCCCCC"/><path d="M373.348,467.582c7.502,0,15.004,0,22.506,0c0.899,3.004,2.101,5.702,3,8.702c-7.799,0-15.306,0-23.108,0    C374.846,473.284,374.247,470.586,373.348,467.582z" fill="#CCCCCC"/><path d="M399.456,467.582c18.908,0,38.113,0.301,57.021,0.301c1.503,2.703,3.302,5.703,4.804,8.703    c-19.808,0-39.313-0.302-58.824-0.302C401.557,473.586,400.355,470.586,399.456,467.582z" fill="#CCCCCC"/><path d="M52.519,466.381c18.912,0,37.816,0.301,57.021,0.301c-1.799,2.703-3.599,5.703-5.398,8.402    c-19.506,0-39.017,0-58.527,0C47.72,472.084,50.117,469.385,52.519,466.381z" fill="#CCCCCC"/><path d="M94.234,455.577c7.205,0,14.41,0,21.611,0c-1.502,3-3.301,5.703-4.799,8.703    c-7.506,0-15.008,0-22.51-0.301C90.636,461.28,92.435,458.577,94.234,455.577z" fill="#CCCCCC"/><path d="M119.448,455.577c7.201,0,14.402,0.302,21.606,0.302c-1.498,2.698-3,5.401-4.201,8.401    c-7.502,0-15.004,0-22.51,0C116.146,461.28,117.946,458.577,119.448,455.577z" fill="#CCCCCC"/><path d="M144.657,455.879c7.201,0,14.406,0,21.611,0c-1.205,2.698-2.401,5.703-3.606,8.401    c-7.498,0-15.004,0-22.506,0C141.657,461.28,143.155,458.577,144.657,455.879z" fill="#CCCCCC"/><path d="M169.565,455.879c7.205,0,14.41,0,21.611,0c-0.9,2.698-1.803,5.703-2.703,8.401    c-7.502,0-15.004,0-22.205,0C167.464,461.582,168.368,458.577,169.565,455.879z" fill="#CCCCCC"/><path d="M194.778,455.879c7.201,0,14.402,0,21.606,0c-0.603,3-1.502,5.703-2.1,8.703    c-7.506,0-15.004,0-22.209-0.302C192.975,461.582,193.875,458.879,194.778,455.879z" fill="#CCCCCC"/><path d="M219.983,455.879c7.205,0,14.108,0,21.313,0.301c-0.301,2.699-0.903,5.699-1.205,8.402    c-7.502,0-15.004,0-22.209,0C218.485,461.582,219.088,458.879,219.983,455.879z" fill="#CCCCCC"/><path d="M244.896,456.18c7.205,0,14.405,0,21.606,0c0,2.699-0.297,5.699-0.599,8.402c-7.502,0-15.008,0-22.209,0    C243.996,461.879,244.594,458.879,244.896,456.18z" fill="#CCCCCC"/><path d="M270.104,456.18c7.205,0,14.406,0,21.611,0c0,3,0,5.699,0,8.703c-7.507,0-14.707,0-22.21-0.301    C269.804,461.879,269.804,458.879,270.104,456.18z" fill="#CCCCCC"/><path d="M295.313,456.18c7.205,0,14.406,0,21.611,0c0,3,0.297,5.699,0.599,8.703c-7.503,0-14.703,0-22.21,0    C295.313,461.879,295.313,459.18,295.313,456.18z" fill="#CCCCCC"/><path d="M320.226,456.18c7.201,0,14.406,0,21.607,0.297c0.603,2.703,1.2,5.703,1.502,8.406    c-7.502,0-14.707,0-22.209,0C320.824,462.18,320.527,459.18,320.226,456.18z" fill="#CCCCCC"/><path d="M345.436,456.477c7.2,0,14.405,0,21.606,0c0.603,2.703,1.502,5.703,2.101,8.703    c-7.502,0-14.703,0-22.205-0.297C346.335,462.18,346.033,459.18,345.436,456.477z" fill="#CCCCCC"/><path d="M370.645,456.477c7.205,0,14.405,0,21.606,0c0.903,3.005,1.804,5.703,2.703,8.703    c-7.201,0-14.707,0-22.209,0C372.146,462.18,371.247,459.18,370.645,456.477z" fill="#CCCCCC"/><path d="M395.557,456.477c7.201,0,14.401,0,21.606,0c1.201,3.005,2.401,5.703,3.603,8.703    c-7.205,0-14.707,0-22.209,0C397.657,462.18,396.753,459.481,395.557,456.477z" fill="#CCCCCC"/><path d="M420.766,456.477c9.904,0,19.808,0,29.711,0c1.8,3.005,3.302,6.005,4.8,8.703c-10.201,0-20.406,0-30.912,0    C423.163,462.481,421.967,459.481,420.766,456.477z" fill="#CCCCCC"/><path d="M60.925,455.577c9.904,0,19.808,0,30.012,0c-2.1,3-3.903,5.703-5.703,8.402c-10.506,0-20.707,0-30.912,0    C56.422,461.28,58.82,458.28,60.925,455.577z" fill="#CCCCCC"/><path d="M68.427,444.774c7.205,0,14.104,0,21.008,0c-1.502,2.698-3.301,5.702-5.101,8.401    c-7.205,0-14.41,0-21.611,0C64.824,450.176,66.929,447.473,68.427,444.774z" fill="#CCCCCC"/><path d="M92.736,444.774c6.904,0,13.808,0,21.008,0c-1.502,2.698-3,5.702-4.502,8.401c-7.201,0-14.406,0-21.611,0    C89.732,450.477,91.238,447.473,92.736,444.774z" fill="#CCCCCC"/><path d="M117.046,444.774c6.904,0,13.808,0,20.707,0c-0.899,2.698-2.397,5.702-3.602,8.401    c-7.201,0-14.402,0-21.607,0C114.343,450.477,115.845,447.473,117.046,444.774z" fill="#CCCCCC"/><path d="M141.355,444.774c6.904,0,13.808,0,20.708,0c-0.9,3-1.799,5.702-3,8.401c-7.205,0-14.406,0-21.606,0    C138.954,450.477,140.155,447.473,141.355,444.774z" fill="#CCCCCC"/><path d="M165.364,444.774c7.205,0,14.108,0,21.008,0c-0.599,3-1.502,5.702-2.398,8.702    c-7.205,0-14.41,0-21.611-0.301C163.565,450.477,164.762,447.774,165.364,444.774z" fill="#CCCCCC"/><path d="M189.674,444.774c6.903,0,14.108,0,21.008,0c-0.599,3-1.201,5.702-1.803,8.702c-7.201,0-14.402,0-21.607,0    C188.176,450.477,189.071,447.774,189.674,444.774z" fill="#CCCCCC"/><path d="M213.983,444.774c6.904,0,13.807,0.301,21.008,0.301c-0.297,2.699-0.9,5.699-1.201,8.401    c-7.205,0-14.406,0-21.607,0C213.083,450.477,213.381,447.774,213.983,444.774z" fill="#CCCCCC"/><path d="M238.293,445.075c6.904,0,13.808,0,20.707,0c0,2.699,0,5.699-0.297,8.401c-7.205,0-14.41,0-21.611,0    C237.69,450.774,237.992,447.774,238.293,445.075z" fill="#CCCCCC"/><path d="M262.603,445.075c6.903,0,13.808,0,20.707,0c0,2.699,0.302,5.699,0.302,8.703    c-7.201,0-14.406-0.302-21.607-0.302C262.302,450.774,262.302,447.774,262.603,445.075z" fill="#CCCCCC"/><path d="M286.611,445.075c6.903,0,14.104,0,21.008,0c0.302,3,0.603,5.699,0.899,8.703c-7.2,0-14.405,0-21.606,0    C286.912,450.774,286.912,447.774,286.611,445.075z" fill="#CCCCCC"/><path d="M310.921,445.075c6.903,0,13.807,0,21.008,0c0.603,3,0.899,5.699,1.502,8.703c-7.205,0-14.405,0-21.61,0    C311.523,450.774,311.222,448.075,310.921,445.075z" fill="#CCCCCC"/><path d="M335.23,445.075c6.903,0,13.808,0,21.008,0c0.603,3,1.201,6,2.101,8.703c-7.201,0-14.405,0-21.606,0    C336.13,450.774,335.833,448.075,335.23,445.075z" fill="#CCCCCC"/><path d="M359.54,445.075c6.903,0,13.808,0,20.707,0.297c1.2,2.703,2.101,5.703,3.004,8.406    c-7.205,0-14.406,0-21.61,0C361.042,451.075,360.143,448.075,359.54,445.075z" fill="#CCCCCC"/><path d="M384.15,445.372c6.904,0,13.804,0,20.707,0c1.201,2.703,2.402,5.703,3.603,8.703    c-7.205,0-14.405,0-21.61,0C385.95,451.075,385.05,448.075,384.15,445.372z" fill="#CCCCCC"/><path d="M409.059,445.372c12.004,0,23.711,0,35.716,0c1.502,3.005,3,5.703,4.502,8.703    c-12.306,0-24.611,0-36.615,0C411.46,451.075,410.26,448.075,409.059,445.372z" fill="#CCCCCC"/><path d="M87.334,431.268c3.603,0,7.502,0,11.105,0c2.1,0,3.603,0.603,3.301,1.502l0,0    c-0.603,0.9-2.703,1.8-4.804,1.8c-3.899,0-7.803,0-11.406,0c-2.401,0-3.899-0.899-3.297-1.8l0,0    C82.833,431.87,84.933,431.268,87.334,431.268z" fill="#CCCCCC"/><path d="M108.945,431.268c3.9,0,7.498,0,11.402,0c2.101,0,3.603,0.603,3.301,1.502l0,0    c-0.301,0.9-2.401,1.8-4.803,1.8c-3.599,0-7.502,0-11.406,0c-2.101,0-3.599-0.899-3.297-1.8l0,0    C104.741,431.87,106.841,431.268,108.945,431.268z" fill="#CCCCCC"/><path d="M130.854,431.268c3.599,0,7.498,0,11.104,0c2.397,0,3.9,0.603,3.599,1.502l0,0    c-0.301,1.201-2.402,1.8-4.502,1.8c-3.899,0-7.803,0-11.406,0c-2.401,0-3.899-0.899-3.598-1.8l0,0    C126.648,431.87,128.753,431.268,130.854,431.268z" fill="#CCCCCC"/><path d="M152.761,431.268c3.599,0,7.502,0,11.105,0c2.401,0,3.899,0.603,3.598,1.502l0,0    c-0.301,1.201-2.1,1.8-4.502,1.8c-3.599,0-7.502,0-11.406,0c-2.101,0-3.599-0.599-3.297-1.8l0,0    C148.561,431.87,150.36,431.268,152.761,431.268z" fill="#CCCCCC"/><path d="M174.669,431.268c3.599,0,7.201,0,11.104,0c2.101,0,3.9,0.603,3.599,1.804l0,0    c0,0.899-2.101,1.498-4.201,1.498c-3.899,0-7.803,0-11.406,0c-2.401,0-3.899-0.599-3.598-1.8l0,0    C170.469,431.87,172.268,431.268,174.669,431.268z" fill="#CCCCCC"/><path d="M196.276,431.268c3.899,0,7.506,0,11.406,0c2.1,0,3.899,0.603,3.899,1.804l0,0    c-0.301,0.899-2.101,1.498-4.502,1.498c-3.599,0-7.502,0-11.406,0c-2.101,0-3.9-0.599-3.599-1.498l0,0    C192.075,431.87,194.176,431.268,196.276,431.268z" fill="#CCCCCC"/><path d="M218.184,431.268c3.603,0,7.506,0,11.406,0c2.101,0,3.9,0.899,3.9,1.804l0,0    c-0.301,0.899-2.101,1.498-4.201,1.498c-3.899,0-7.799,0-11.406,0c-2.401,0-3.899-0.599-3.899-1.498l0,0    C213.983,431.87,216.083,431.268,218.184,431.268z" fill="#CCCCCC"/><path d="M240.092,431.268c3.602,0,7.506,0,11.104,0c2.401,0,4.201,0.899,4.201,1.804l0,0    c0,0.899-1.799,1.799-4.201,1.799c-3.599,0-7.502-0.301-11.406-0.301c-2.101,0-3.9-0.599-3.9-1.498l0,0    C235.891,432.167,237.69,431.268,240.092,431.268z" fill="#CCCCCC"/><path d="M262.004,431.268c3.599,0,7.502,0,11.101,0c2.104,0,4.205,0.899,4.205,1.804l0,0    c0,0.899-1.804,1.799-3.903,1.799c-3.9,0-7.804,0-11.402,0c-2.401,0-4.205-0.899-4.205-1.799l0,0    C257.799,432.167,259.603,431.268,262.004,431.268z" fill="#CCCCCC"/><path d="M283.611,431.268c3.899,0,7.502,0,11.405,0c2.101,0,4.201,0.899,4.201,1.804l0,0    c0.301,0.899-1.502,1.799-3.904,1.799c-3.598,0-7.502,0-11.401,0c-2.101,0-3.903-0.899-4.205-1.799l0,0    C279.707,432.167,281.511,431.268,283.611,431.268z" fill="#CCCCCC"/><path d="M305.519,431.268c3.904,0,7.502,0,11.406,0c2.101,0,3.899,0.899,4.201,1.804l0,0    c0.301,0.899-1.503,1.799-3.603,1.799c-3.9,0-7.503,0-11.402,0c-2.401,0-4.205-0.899-4.502-1.799l0,0    C301.619,432.167,303.418,431.268,305.519,431.268z" fill="#CCCCCC"/><path d="M327.427,431.268c3.603,0,7.502,0,11.104,0c2.401,0,4.201,0.899,4.502,1.804l0,0    c0.302,0.899-1.2,1.799-3.603,1.799c-3.598,0-7.502,0-11.401,0c-2.101,0-4.205-0.899-4.205-1.799l0,0    C323.527,432.167,325.025,431.268,327.427,431.268z" fill="#CCCCCC"/><path d="M349.335,431.268c3.603,0,7.506,0,11.104,0c2.101,0,4.205,0.899,4.502,1.804l0,0    c0.301,0.899-1.201,1.799-3.301,1.799c-3.9,0-7.503,0-11.402,0c-2.401,0-4.502-0.899-4.502-1.799l0,0    C345.436,432.167,346.938,431.268,349.335,431.268z" fill="#CCCCCC"/><path d="M370.945,431.268c3.9,0,7.502,0,11.402,0c2.104,0,4.205,0.899,4.803,1.804l0,0    c0.302,0.899-1.2,1.799-3.603,1.799c-3.598,0-7.502,0-11.401,0c-2.101,0-4.201-0.899-4.502-1.799l0,0    C367.343,432.167,368.845,431.268,370.945,431.268z" fill="#CCCCCC"/><path d="M392.854,431.268c3.899,0,7.502,0,11.406,0c2.1,0,4.2,0.899,4.799,1.804l0,0    c0.301,1.196-1.201,1.799-3.301,1.799c-3.9,0-7.804,0-11.402,0c-2.401,0-4.502-0.899-4.803-1.799l0,0    C389.251,432.167,390.753,431.268,392.854,431.268z" fill="#CCCCCC"/><path d="M414.762,431.268c3.603,0,7.502,0,11.104,0c2.401,0,4.502,0.899,5.101,1.804l0,0    c0.603,1.196-0.899,1.799-3.302,1.799c-3.899,0-7.502,0-11.104,0c-2.397,0-4.498-0.603-5.101-1.799l0,0    C411.159,432.167,412.661,431.268,414.762,431.268z" fill="#CCCCCC"/><path d="M94.837,419.862c3.899,0,6.904,0.903,6.904,2.104c0,0.899-3.004,1.799-6.904,1.799    c-3.9,0-7.205-0.899-7.205-1.799C87.632,420.766,90.937,419.862,94.837,419.862z" fill="#CCCCCC"/><path d="M111.941,420.465c2.703,0,4.803,0.598,4.803,1.502c0,0.598-2.1,1.196-4.803,1.196    c-2.401,0-4.799-0.599-4.799-1.196C107.142,421.063,109.54,420.465,111.941,420.465z" fill="#CCCCCC"/><path d="M245.197,478.088c2.401,0,4.502,0,6.603,0c-0.301,3-0.301,5.703-0.603,8.703c-2.101,0-4.201,0-6.603,0    C244.896,483.791,244.896,481.088,245.197,478.088z" fill="#B8B8B8"/><path d="M255.699,478.088c7.502,0,15.305,0.297,23.109,0.297c0,2.703,0,5.703,0,8.406c-7.804,0-15.904,0-23.707,0    C255.101,483.791,255.397,481.088,255.699,478.088z" fill="#B8B8B8"/><path d="M282.711,478.385c7.502,0,15.306,0,23.109,0c0.301,3.004,0.598,5.703,0.899,8.707    c-8.104,0-16.205,0-24.009-0.301C282.711,484.088,282.41,481.088,282.711,478.385z" fill="#B8B8B8"/><path d="M309.72,478.385c7.502,0,15.306,0,23.108,0.302c0.302,2.702,0.904,5.702,1.502,8.405    c-8.104,0-15.907,0-24.008,0C310.021,484.088,309.72,481.389,309.72,478.385z" fill="#B8B8B8"/><path d="M336.732,478.687c7.502,0,15.306,0,23.108,0c0.599,3,1.498,5.702,2.101,8.702    c-8.104,0-15.908,0-23.711-0.297C337.632,484.389,337.033,481.389,336.732,478.687z" fill="#B8B8B8"/><path d="M363.74,478.687c7.507,0,15.306,0,23.109,0c0.903,3,1.803,6.004,2.703,8.702c-7.804,0-15.908,0-23.712,0    C364.941,484.389,364.343,481.687,363.74,478.687z" fill="#B8B8B8"/><path d="M390.452,478.687c24.008,0.301,48.021,0.301,72.029,0.301c1.502,2.699,3.301,5.703,4.799,8.703    c-24.606,0-49.218,0-73.828-0.302C392.553,484.69,391.352,481.687,390.452,478.687z" fill="#B8B8B8"/><path d="M246.695,466.983c6.301,0,12.606,0,18.908,0.297c-0.297,2.703-0.599,5.703-0.599,8.406    c-6.603,0-12.903,0-19.506,0C246.096,472.687,246.394,469.983,246.695,466.983z" fill="#B8B8B8"/><path d="M269.205,467.28c7.502,0,15.004,0,22.511,0c0,3.004,0,5.703,0,8.707c-7.804,0-15.306-0.301-23.109-0.301    C268.904,472.983,268.904,469.983,269.205,467.28z" fill="#B8B8B8"/><path d="M295.313,467.28c7.507,0,15.009,0,22.511,0c0,3.004,0.301,6.004,0.599,8.707c-7.804,0-15.306,0-23.109,0    C295.313,472.983,295.313,470.284,295.313,467.28z" fill="#B8B8B8"/><path d="M321.427,467.28c7.502,0,14.703,0.302,22.209,0.302c0.599,2.702,0.899,5.702,1.498,8.702    c-7.804-0.297-15.306-0.297-23.108-0.297C322.025,473.284,321.427,470.284,321.427,467.28z" fill="#B8B8B8"/><path d="M347.234,467.582c7.502,0,15.008,0,22.511,0c0.899,3.004,1.502,5.702,2.1,8.702    c-7.502,0-15.305,0-22.807,0C348.436,473.284,347.837,470.284,347.234,467.582z" fill="#B8B8B8"/><path d="M373.348,467.582c7.502,0,15.004,0,22.506,0c0.899,3.004,2.101,5.702,3,8.702c-7.799,0-15.306,0-23.108,0    C374.846,473.284,374.247,470.586,373.348,467.582z" fill="#B8B8B8"/><path d="M399.456,467.582c18.908,0,38.113,0.301,57.021,0.301c1.503,2.703,3.302,5.703,4.804,8.703    c-19.808,0-39.313-0.302-58.824-0.302C401.557,473.586,400.355,470.586,399.456,467.582z" fill="#B8B8B8"/><path d="M248.197,456.18c6.004,0,12.305,0,18.305,0c0,2.699-0.297,5.699-0.599,8.402c-6.301,0-12.606,0-18.908,0    C247.598,461.879,247.899,458.879,248.197,456.18z" fill="#B8B8B8"/><path d="M270.104,456.18c7.205,0,14.406,0,21.611,0c0,3,0,5.699,0,8.703c-7.507,0-14.707,0-22.21-0.301    C269.804,461.879,269.804,458.879,270.104,456.18z" fill="#B8B8B8"/><path d="M295.313,456.18c7.205,0,14.406,0,21.611,0c0,3,0.297,5.699,0.599,8.703c-7.503,0-14.703,0-22.21,0    C295.313,461.879,295.313,459.18,295.313,456.18z" fill="#B8B8B8"/><path d="M320.226,456.18c7.201,0,14.406,0,21.607,0.297c0.603,2.703,1.2,5.703,1.502,8.406    c-7.502,0-14.707,0-22.209,0C320.824,462.18,320.527,459.18,320.226,456.18z" fill="#B8B8B8"/><path d="M345.436,456.477c7.2,0,14.405,0,21.606,0c0.603,2.703,1.502,5.703,2.101,8.703    c-7.502,0-14.703,0-22.205-0.297C346.335,462.18,346.033,459.18,345.436,456.477z" fill="#B8B8B8"/><path d="M370.645,456.477c7.205,0,14.405,0,21.606,0c0.903,3.005,1.804,5.703,2.703,8.703    c-7.201,0-14.707,0-22.209,0C372.146,462.18,371.247,459.18,370.645,456.477z" fill="#B8B8B8"/><path d="M395.557,456.477c7.201,0,14.401,0,21.606,0c1.201,3.005,2.401,5.703,3.603,8.703    c-7.205,0-14.707,0-22.209,0C397.657,462.18,396.753,459.481,395.557,456.477z" fill="#B8B8B8"/><path d="M420.766,456.477c9.904,0,19.808,0,29.711,0c1.8,3.005,3.302,6.005,4.8,8.703c-10.201,0-20.406,0-30.912,0    C423.163,462.481,421.967,459.481,420.766,456.477z" fill="#B8B8B8"/><path d="M249.096,445.075c3.301,0,6.603,0,9.904,0c0,2.699,0,5.699-0.297,8.401c-3.306,0-6.904,0-10.205,0    C248.795,450.774,249.096,447.774,249.096,445.075z" fill="#B8B8B8"/><path d="M262.603,445.075c6.903,0,13.808,0,20.707,0c0,2.699,0.302,5.699,0.302,8.703    c-7.201,0-14.406-0.302-21.607-0.302C262.302,450.774,262.302,447.774,262.603,445.075z" fill="#B8B8B8"/><path d="M286.611,445.075c6.903,0,14.104,0,21.008,0c0.302,3,0.603,5.699,0.899,8.703c-7.2,0-14.405,0-21.606,0    C286.912,450.774,286.912,447.774,286.611,445.075z" fill="#B8B8B8"/><path d="M310.921,445.075c6.903,0,13.807,0,21.008,0c0.603,3,0.899,5.699,1.502,8.703c-7.205,0-14.405,0-21.61,0    C311.523,450.774,311.222,448.075,310.921,445.075z" fill="#B8B8B8"/><path d="M335.23,445.075c6.903,0,13.808,0,21.008,0c0.603,3,1.201,6,2.101,8.703c-7.201,0-14.405,0-21.606,0    C336.13,450.774,335.833,448.075,335.23,445.075z" fill="#B8B8B8"/><path d="M359.54,445.075c6.903,0,13.808,0,20.707,0.297c1.2,2.703,2.101,5.703,3.004,8.406    c-7.205,0-14.406,0-21.61,0C361.042,451.075,360.143,448.075,359.54,445.075z" fill="#B8B8B8"/><path d="M384.15,445.372c6.904,0,13.804,0,20.707,0c1.201,2.703,2.402,5.703,3.603,8.703    c-7.205,0-14.405,0-21.61,0C385.95,451.075,385.05,448.075,384.15,445.372z" fill="#B8B8B8"/><path d="M409.059,445.372c12.004,0,23.711,0,35.716,0c1.502,3.005,3,5.703,4.502,8.703    c-12.306,0-24.611,0-36.615,0C411.46,451.075,410.26,448.075,409.059,445.372z" fill="#B8B8B8"/><path d="M249.096,431.268c0.603,0,1.502,0,2.101,0c2.401,0,4.201,0.899,4.201,1.804l0,0    c0,0.899-1.799,1.799-4.201,1.799c-0.599,0-1.498,0-2.101,0C249.096,433.67,249.096,432.469,249.096,431.268z" fill="#B8B8B8"/><path d="M262.004,431.268c3.599,0,7.502,0,11.101,0c2.104,0,4.205,0.899,4.205,1.804l0,0    c0,0.899-1.804,1.799-3.903,1.799c-3.9,0-7.804,0-11.402,0c-2.401,0-4.205-0.899-4.205-1.799l0,0    C257.799,432.167,259.603,431.268,262.004,431.268z" fill="#B8B8B8"/><path d="M283.611,431.268c3.899,0,7.502,0,11.405,0c2.101,0,4.201,0.899,4.201,1.804l0,0    c0.301,0.899-1.502,1.799-3.904,1.799c-3.598,0-7.502,0-11.401,0c-2.101,0-3.903-0.899-4.205-1.799l0,0    C279.707,432.167,281.511,431.268,283.611,431.268z" fill="#B8B8B8"/><path d="M305.519,431.268c3.904,0,7.502,0,11.406,0c2.101,0,3.899,0.899,4.201,1.804l0,0    c0.301,0.899-1.503,1.799-3.603,1.799c-3.9,0-7.503,0-11.402,0c-2.401,0-4.205-0.899-4.502-1.799l0,0    C301.619,432.167,303.418,431.268,305.519,431.268z" fill="#B8B8B8"/><path d="M327.427,431.268c3.603,0,7.502,0,11.104,0c2.401,0,4.201,0.899,4.502,1.804l0,0    c0.302,0.899-1.2,1.799-3.603,1.799c-3.598,0-7.502,0-11.401,0c-2.101,0-4.205-0.899-4.205-1.799l0,0    C323.527,432.167,325.025,431.268,327.427,431.268z" fill="#B8B8B8"/><path d="M349.335,431.268c3.603,0,7.506,0,11.104,0c2.101,0,4.205,0.899,4.502,1.804l0,0    c0.301,0.899-1.201,1.799-3.301,1.799c-3.9,0-7.503,0-11.402,0c-2.401,0-4.502-0.899-4.502-1.799l0,0    C345.436,432.167,346.938,431.268,349.335,431.268z" fill="#B8B8B8"/><path d="M370.945,431.268c3.9,0,7.502,0,11.402,0c2.104,0,4.205,0.899,4.803,1.804l0,0    c0.302,0.899-1.2,1.799-3.603,1.799c-3.598,0-7.502,0-11.401,0c-2.101,0-4.201-0.899-4.502-1.799l0,0    C367.343,432.167,368.845,431.268,370.945,431.268z" fill="#B8B8B8"/><path d="M392.854,431.268c3.899,0,7.502,0,11.406,0c2.1,0,4.2,0.899,4.799,1.804l0,0    c0.301,1.196-1.201,1.799-3.301,1.799c-3.9,0-7.804,0-11.402,0c-2.401,0-4.502-0.899-4.803-1.799l0,0    C389.251,432.167,390.753,431.268,392.854,431.268z" fill="#B8B8B8"/><path d="M414.762,431.268c3.603,0,7.502,0,11.104,0c2.401,0,4.502,0.899,5.101,1.804l0,0    c0.603,1.196-0.899,1.799-3.302,1.799c-3.899,0-7.502,0-11.104,0c-2.397,0-4.498-0.603-5.101-1.799l0,0    C411.159,432.167,412.661,431.268,414.762,431.268z" fill="#B8B8B8"/><path d="M249.096,497.293h255.1c1.503,0,2.703,2.401,2.703,4.804l0,0c0,2.698-1.2,4.803-2.703,4.803h-255.1    V497.293z" fill="#B8B8B8"/><path d="M249.096,506.297h255.1c1.503,0,2.101-3,2.101-4.2c0-0.9-0.598-4.201-2.101-4.201h-255.1V506.297z" fill="#A1A1A1"/><path d="M510.498,495.795c-0.297-0.301-0.599-0.603-0.899-0.903c-4.804-6.603-9.904-13.205-15.005-19.808    c-5.104-6.9-10.205-13.804-15.606-20.707c-5.104-6.904-10.205-13.804-15.606-20.406c-5.101-6.903-10.205-13.808-15.306-20.711    c-1.201-1.197-2.703-2.101-4.201-2.101H69.627c-1.803,0-3.301,0.903-4.205,2.101c-5.398,6.903-10.804,13.808-15.904,20.711    c-5.402,6.603-10.506,13.502-15.904,20.406c-5.406,6.903-10.506,13.807-15.908,20.707c-5.104,6.603-10.205,13.205-15.305,19.808    c-0.301,0.301-0.603,0.603-0.904,0.903C0.301,497.594,0,499.996,0,502.097C0,506.599,2.402,512,7.803,512h496.393    c5.402,0,7.804-5.401,7.804-9.903C512,499.996,511.699,497.896,510.498,495.795z M504.196,506.899h-255.1H7.803    c-1.502,0-2.699-2.104-2.699-4.803c0-1.201,0.297-2.703,0.896-3.603c0,0,0.301-0.302,0.301-0.599    c5.104-6.603,10.506-13.205,15.607-19.808c5.401-6.903,10.502-13.808,15.908-20.711c5.402-6.9,10.502-13.503,15.908-20.406    c5.097-6.903,10.502-13.808,15.904-20.707h93.335h86.134h7.502h93.64h93.636c5.101,6.899,10.201,13.804,15.607,20.707    c5.101,6.903,10.2,13.506,15.305,20.406c5.402,6.903,10.503,13.808,15.607,20.711c5.101,6.603,10.2,13.205,15.306,20.104    l0.297,0.302c0.603,0.899,0.903,2.401,0.903,3.603C506.899,504.795,505.699,506.899,504.196,506.899z" fill="#4E5A62"/></g></g></svg>