<?xml version="1.0" ?><!DOCTYPE svg  PUBLIC '-//W3C//DTD SVG 1.1//EN'  'http://www.w3.org/Graphics/SVG/1.1/DTD/svg11.dtd'><svg enable-background="new 0 0 300 300" height="300px" id="Layer_1" version="1.1" viewBox="0 0 300 300" width="300px" xml:space="preserve" xmlns="http://www.w3.org/2000/svg" xmlns:xlink="http://www.w3.org/1999/xlink"><path d="M196.439,9.176h-89.744c-12.793,0-23.161,6.51-23.161,19.3V275.2c0,12.79,10.368,19.3,23.161,19.3h89.744  c12.79,0,23.161-6.51,23.161-19.3V28.477C219.601,15.687,209.229,9.176,196.439,9.176z" fill="#323842"/><g><path d="M197.115,6.04h-3.538h-7.378h-3.539c-0.782,0-1.417,0.782-1.417,1.749v1.387h3.537h10.215h3.537V7.789   C198.532,6.822,197.897,6.04,197.115,6.04z" fill="#D8D8D8"/><path d="M80.399,67.854v10.917c0,0.782,0.781,1.417,1.749,1.417h1.386V66.438h-1.386   C81.181,66.438,80.399,67.072,80.399,67.854z" fill="#D8D8D8"/><path d="M80.399,41.076v5.549v5.368v5.548c0,0.782,0.781,1.417,1.749,1.417h1.386V53.41v-8.202v-5.549h-1.386   C81.181,39.658,80.399,40.294,80.399,41.076z" fill="#D8D8D8"/><path d="M80.399,88.481v10.917c0,0.782,0.781,1.417,1.749,1.417h1.386V87.064h-1.386   C81.181,87.064,80.399,87.7,80.399,88.481z" fill="#D8D8D8"/></g><rect fill="#DCDEE2" height="221.228" width="121.59" x="90.772" y="39.658"/><g><circle cx="152.131" cy="20.6" fill="#454B53" r="3.377"/><path d="M165.559,27.193h-27.983c-1.378,0-2.493,1.116-2.493,2.493c0,1.378,1.115,2.494,2.493,2.494h27.983   c1.379,0,2.495-1.116,2.495-2.494C168.054,28.309,166.938,27.193,165.559,27.193z" fill="#454B53"/><path d="M151.568,274.521c-2.194,0-3.976,1.781-3.976,3.975c0,2.194,1.781,3.976,3.976,3.976   c2.192,0,3.974-1.781,3.974-3.976C155.542,276.303,153.761,274.521,151.568,274.521z" fill="#454B53"/><path d="M151.568,268.967c-5.263,0-9.53,4.268-9.53,9.529c0,5.263,4.268,9.53,9.53,9.53   c5.262,0,9.528-4.268,9.528-9.53C161.097,273.234,156.83,268.967,151.568,268.967z M151.568,283.161   c-2.575,0-4.665-2.091-4.665-4.665s2.09-4.665,4.665-4.665c2.574,0,4.664,2.091,4.664,4.665S154.143,283.161,151.568,283.161z" fill="#454B53"/></g></svg>