<svg xmlns="http://www.w3.org/2000/svg" width="100" height="88" viewBox="0 0 100 88">
    <g fill="none" fill-rule="evenodd">
        <path fill="#000" fill-rule="nonzero" d="M69.911 36.149h8.922v2.129h-8.922zM69.911 40.575h17.845v2.129H69.911zM69.911 45.003h17.845v2.129H69.911zM69.911 49.43h17.845v2.131H69.911zM69.911 22.466h17.845v11.322H69.911zM69.911 13.145h17.845v5.661H69.911z"/>
        <path d="M69.911 36.149h8.922v2.129h-8.922zM69.911 22.466h17.845v11.322H69.911zM69.911 40.575h17.845v2.129H69.911zM69.911 13.145h17.845v5.661H69.911zM69.911 49.43h17.845v2.131H69.911zM69.911 45.003h17.845v2.129H69.911zM47.95 70.188c0-1.173.867-2.122 1.938-2.122-1.072 0-1.939.95-1.938 2.122 0 1.174.866 2.122 1.938 2.122-1.07 0-1.938-.95-1.938-2.122z"/>
        <path d="M49.888 68.066c1.07 0 1.938.95 1.938 2.122s-.867 2.122-1.938 2.122c1.07 0 1.94-.947 1.939-2.122 0-1.173-.868-2.122-1.939-2.122z"/>
        <ellipse cx="49.888" cy="70.188" rx="1.938" ry="2.122"/>
        <path fill="#000" fill-rule="nonzero" d="M62.028 4.86H4.235v56.352h58.479V4.859h-.686zM41.275 33.136v1.68H16.388v-1.68h24.887zm-9-1.088H16.389v-1.682h15.888v1.682zm-21.34-21.555h4.376v1.68h-4.376v-1.68zm0 2.831h10.907v1.68H10.935v-1.68zm0 2.83h14.543v1.68H10.935v-1.68zm0 2.83h10.907v1.68H10.935v-1.68zm0 2.831h10.907v1.68H10.935v-1.68zm0 2.83h4.376v1.68h-4.376v-1.68zm0 2.832h7.316v1.68h-7.316v-1.68zm0 2.89h4.376v1.68h-4.376v-1.68zm0 2.77h4.376v1.679h-4.376v-1.68zm0 2.83h4.376v1.68h-4.376v-1.68zm0 5.662h4.376v1.68h-4.376v-1.68zm-1.05 13.002H8.558v-1.681h1.327v1.681zm0-2.83H8.558V50.12h1.327v1.68zm0-2.83H8.558V47.29h1.327v1.68zm0-2.83H8.558v-1.683h1.327v1.682zm0-2.832H8.558v-1.68h1.327v1.68zm0-2.831H8.558v-1.682h1.327v1.682zm0-2.831H8.558v-1.68h1.327v1.68zm0-2.831H8.558v-1.68h1.327v1.68zm0-2.83H8.558v-1.68h1.327v1.68zm0-2.83H8.558v-1.679h1.327v1.68zm0-2.83H8.558v-1.68h1.327v1.68zm0-2.83H8.558v-1.68h1.327v1.68zm0-2.831H8.558v-1.68h1.327v1.68zm0-2.83H8.558v-1.68h1.327v1.68zm0-2.83H8.558v-1.68h1.327v1.68zm0-2.831H8.558v-1.681h1.327v1.68zm8.366 42.457h-7.316v-1.681h7.316v1.681zm1.632-2.83h-8.948V50.12h8.948v1.68zm8.95-2.83H10.935V47.29h17.898v1.68zm3.443-2.83H10.935v-1.683h21.34v1.682zm13.523-2.832H16.388v-1.68h29.41v1.68zm0-2.831H10.935v-1.682h34.864v1.682zm5.415-2.831H16.388v-1.68h34.826v1.68zm5.426 0h-4.376v-1.68h4.376v1.68z"/>
        <ellipse cx="49.888" cy="70.188" rx="1.938" ry="2.122"/>
        <path fill="#9B9B9B" fill-rule="nonzero" d="M96.775.473H3.084C1.444.473.029 1.84.029 3.636v68.517c0 1.796 1.414 3.306 3.055 3.306h36.892c-.043 1.03-.337 5.467-2.262 7.613-1.517 1.696-3.625 3.28-2.802 4.096.2.502 1.146.79 3.296.79H62.48c2.45 0 3.307-.44 3.315-1.094h-.084v-.217h-.086c-.11-.885-1.745-2.19-2.981-3.569-1.925-2.146-2.218-6.58-2.261-7.61h36.396c1.642 0 2.97-1.511 2.97-3.31V3.637c0-1.798-1.331-3.164-2.973-3.164zM49.888 72.31c-1.072 0-1.939-.947-1.939-2.122 0-1.173.867-2.122 1.94-2.122 1.07 0 1.938.95 1.938 2.122 0 1.174-.868 2.122-1.939 2.122zm45.655-11.098H4.235V4.859H95.543v56.353z"/>
    </g>
</svg>
