<svg xmlns="http://www.w3.org/2000/svg" width="161" height="149" viewBox="0 0 161 149">
    <g fill="#000" fill-rule="nonzero">
        <path d="M114.713 43.829c3.018 1.324 6.163 2.047 9.307 2.047 8.302 0 16.226-4.456 20-12.162a20.184 20.184 0 0 0 2.012-6.983v-.12c.755-8.55-3.9-17.22-12.578-21.072-11.069-4.937-24.15-.361-29.307 10.114a17.035 17.035 0 0 0-1.887 6.863v.241c-.88 8.67 3.9 17.219 12.453 21.072zm.88-1.686c-3.019-1.325-3.522-6.984-1.761-13.606l13.836 6.14a24.545 24.545 0 0 1-4.528 4.817c-3.019 2.528-5.786 3.492-7.547 2.649zm-1.258-15.412c.63-1.807 1.384-3.613 2.264-5.54.88-1.805 1.887-3.611 3.019-5.177l14.339 6.382c-.629 1.806-1.384 3.612-2.264 5.539-.88 1.806-1.887 3.612-3.019 5.177l-14.339-6.381zm5.786 16.857c1.384-.602 2.767-1.445 4.15-2.65 1.762-1.444 3.397-3.25 5.032-5.418l8.05 3.613c-4.654 3.973-11.069 5.659-17.232 4.455zm16.603-33.955c4.906 3.853 7.673 9.632 7.547 15.532l-8.05-3.612c.755-2.529 1.132-4.937 1.132-7.104 0-1.806-.251-3.492-.629-4.816zm7.296 17.459c-.252 1.926-.88 3.853-1.761 5.659-.88 1.806-2.139 3.492-3.522 4.937l-8.428-3.853c1.007-1.566 2.013-3.372 3.02-5.178a42.918 42.918 0 0 0 2.263-5.539l8.428 3.974zM132.573 7.224c1.887.843 2.893 3.492 2.768 7.225 0 1.927-.378 4.094-1.007 6.382l-13.836-6.141c3.522-4.696 7.547-7.706 10.44-7.706.755-.12 1.258 0 1.635.24zm-8.427-1.806c1.258 0 2.641.12 3.9.362-3.02 1.204-6.29 4.093-9.183 8.067l-8.05-3.612c3.648-3.13 8.428-4.817 13.333-4.817zm-18.364 11.078c.88-1.806 2.138-3.492 3.522-4.937l8.427 3.853a65.742 65.742 0 0 0-3.018 5.178c-.881 1.806-1.636 3.732-2.265 5.539l-8.427-3.853c.377-2.047.88-3.974 1.761-5.78zm6.29 11.318c-1.385 4.696-1.51 8.91-.63 11.92-4.905-3.852-7.672-9.632-7.547-15.532l8.176 3.612zM60.25 130.522V64.178c0-2.529-2.14-4.696-4.906-4.696H16.352c-2.642 0-4.906 2.047-4.906 4.696v66.344c0 2.529 2.138 4.696 4.906 4.696h38.992c2.767-.12 4.905-2.167 4.905-4.696zM13.458 64.178c0-1.566 1.383-2.89 3.018-2.89H55.47c1.635 0 3.018 1.324 3.018 2.89v4.695h-45.03v-4.695zm0 6.502h44.903v53.34H13.46V70.68zm0 59.842v-4.695h44.903v4.695c0 1.566-1.383 2.89-3.018 2.89H16.352c-1.51-.12-2.893-1.324-2.893-2.89z"/>
        <path d="M38.615 64.057h-5.283c-.503 0-1.006.361-1.006.963 0 .482.377.964 1.006.964h5.283c.503 0 1.006-.362 1.006-.964-.126-.602-.503-.963-1.006-.963zM43.772 128.596H28.049c-.503 0-1.006.361-1.006.963 0 .482.377.963 1.006.963h15.723c.503 0 1.006-.36 1.006-.963-.126-.602-.503-.963-1.006-.963zM50.69 95.122l-2.39-.24c-.377-1.566-1.006-3.01-1.887-4.215l1.51-1.806a.897.897 0 0 0-.126-1.204l-1.887-1.806a1 1 0 0 0-1.258-.12l-1.886 1.445a15.39 15.39 0 0 0-4.403-1.807l-.251-2.287c0-.482-.503-.843-.88-.843H34.59c-.503 0-.88.361-.88.843l-.252 2.408c-1.635.361-3.145.963-4.403 1.806L27.17 85.85a1 1 0 0 0-1.258.12l-2.013 1.686a.897.897 0 0 0-.125 1.204l1.509 1.806a14.07 14.07 0 0 0-1.887 4.215l-2.138.24c-.503 0-.88.482-.88.843v2.529c0 .482.377.843.88.843l2.39.24c.377 1.566 1.006 3.01 1.887 4.215l-1.636 1.926a.897.897 0 0 0 .126 1.204l1.887 1.807a1 1 0 0 0 1.258.12l1.886-1.445a15.39 15.39 0 0 0 4.403 1.806l.251 2.288c0 .482.503.843.88.843h2.642c.503 0 .88-.361.88-.843l.252-2.288c1.635-.361 3.145-.963 4.403-1.806l1.886 1.445a1 1 0 0 0 1.258-.12l1.887-1.807a.897.897 0 0 0 .126-1.204l-1.51-1.806a14.07 14.07 0 0 0 1.887-4.214l2.39-.24c.503 0 .88-.482.88-.844v-2.528c-.125-.482-.377-.843-.88-.964zm-1.132 2.65l-2.264.24c-.378 0-.755.361-.88.723-.252 1.685-1.007 3.371-2.013 4.696-.252.36-.252.842 0 1.083l1.383 1.686-.503.722-1.76-1.324c-.378-.24-.881-.24-1.133 0-1.383 1.084-3.144 1.686-4.905 1.926-.378 0-.755.362-.755.843l-.251 2.168H35.47l-.251-2.288c0-.361-.378-.723-.755-.843-1.76-.24-3.522-.963-4.905-1.926-.378-.241-.88-.241-1.132 0l-1.761 1.324-.63-.602 1.384-1.686c.252-.36.252-.843 0-1.083-1.132-1.325-1.76-3.01-2.012-4.696 0-.362-.378-.723-.88-.723l-2.265-.24v-.964l2.264-.24c.378 0 .755-.362.88-.723.252-1.686 1.007-3.372 2.013-4.696.252-.361.252-.843 0-1.084l-1.383-1.685.629-.602 1.76 1.324c.378.24.881.24 1.133 0 1.383-1.084 3.144-1.686 4.905-1.926.377 0 .755-.362.755-.843l.251-2.168h1.007l.251 2.168c0 .36.377.722.755.843 1.76.24 3.522.963 4.905 1.926.378.24.88.24 1.132 0l1.761-1.324.63.602-1.384 1.685c-.252.362-.252.843 0 1.084 1.132 1.324 1.76 3.01 2.012 4.696 0 .361.377.722.88.722l2.265.241v.963h-.126z"/>
        <path d="M35.973 91.149c-3.521 0-6.414 2.77-6.414 6.14 0 3.372 2.893 6.142 6.414 6.142 3.522 0 6.415-2.77 6.415-6.141a6.391 6.391 0 0 0-6.415-6.141zm0 10.475c-2.515 0-4.528-1.926-4.528-4.334 0-2.408 2.013-4.335 4.528-4.335 2.516 0 4.529 1.927 4.529 4.335-.126 2.408-2.139 4.334-4.529 4.334zM72.198 49.247c.126.12.378.24.63.24.25 0 .502-.12.628-.24a.916.916 0 0 0 0-1.325l-1.76-1.806a1.019 1.019 0 0 0-1.384 0 .916.916 0 0 0 0 1.325l1.886 1.806zM77.859 52.016a1.019 1.019 0 0 0-1.384 0 .916.916 0 0 0 0 1.325l1.887 1.806c.126.12.377.24.629.24.251 0 .503-.12.629-.24a.916.916 0 0 0 0-1.325l-1.761-1.806zM71.066 55.388c.252 0 .504-.12.63-.241l1.886-1.806a.916.916 0 0 0 0-1.325 1.019 1.019 0 0 0-1.384 0l-1.886 1.806a.916.916 0 0 0 0 1.325c.251.12.503.24.754.24zM79.745 46.116a1.019 1.019 0 0 0-1.383 0l-1.887 1.806a.916.916 0 0 0 0 1.325c.126.12.377.24.629.24.251 0 .503-.12.629-.24l1.887-1.806c.503-.482.503-.963.125-1.325zM2.264 139.433a1.019 1.019 0 0 0-1.384 0 .916.916 0 0 0 0 1.324l1.887 1.806c.126.12.378.241.63.241.25 0 .502-.12.628-.24a.916.916 0 0 0 0-1.325l-1.76-1.806zM8.427 145.333a1.019 1.019 0 0 0-1.383 0 .916.916 0 0 0 0 1.324l1.886 1.806c.126.12.378.241.63.241.25 0 .502-.12.628-.24a.916.916 0 0 0 0-1.325l-1.76-1.806zM2.767 145.333L.88 147.139a.916.916 0 0 0 0 1.324c.126.12.378.241.63.241.25 0 .503-.12.628-.24l1.887-1.807a.916.916 0 0 0 0-1.324c-.252-.241-.88-.241-1.258 0zM9.056 139.433l-1.886 1.806a.916.916 0 0 0 0 1.324c.125.12.377.241.628.241.252 0 .504-.12.63-.24l1.886-1.807a.916.916 0 0 0 0-1.324c-.252-.362-.88-.362-1.258 0zM3.019 93.557c.503 0 1.006-.361 1.006-.963V79.229c0-.482-.377-.964-1.006-.964-.503 0-1.006.362-1.006.964v13.485c.125.482.503.843 1.006.843zM3.019 104.755c.503 0 1.006-.361 1.006-.963v-4.816c0-.482-.377-.964-1.006-.964-.503 0-1.006.361-1.006.964v4.816c.125.481.503.963 1.006.963zM154.837 30.463c.503 0 1.006-.361 1.006-.963V16.014c0-.481-.377-.963-1.006-.963-.503 0-1.007.361-1.007.963V29.5c0 .602.504.963 1.007.963zM154.837 41.54c.503 0 1.006-.36 1.006-.962V35.76c0-.481-.377-.963-1.006-.963-.503 0-1.007.361-1.007.963v4.817c0 .602.504.963 1.007.963zM84.902 117.157c-2.515 0-4.528 1.927-4.528 4.335s2.013 4.335 4.528 4.335c2.516 0 4.528-1.927 4.528-4.335 0-2.288-2.138-4.335-4.528-4.335zm0 6.863c-1.383 0-2.641-1.083-2.641-2.528s1.132-2.529 2.641-2.529c1.51 0 2.642 1.084 2.642 2.529 0 1.445-1.258 2.528-2.642 2.528zM79.116 18.302c2.516 0 4.529-1.926 4.529-4.335 0-2.408-2.013-4.334-4.529-4.334-2.515 0-4.528 1.926-4.528 4.334 0 2.409 2.013 4.335 4.528 4.335zm0-6.743c1.384 0 2.642 1.084 2.642 2.529 0 1.324-1.132 2.528-2.642 2.528-1.383 0-2.641-1.083-2.641-2.528s1.258-2.529 2.641-2.529zM29.055 7.465c0 .482.378.964 1.007.964h18.364c.503 0 1.006-.362 1.006-.964 0-.481-.377-.963-1.006-.963H30.062c-.503.12-1.007.482-1.007.963zM18.113 8.429h5.911c.503 0 1.006-.362 1.006-.964 0-.481-.377-.963-1.006-.963h-5.912c-.503 0-1.006.361-1.006.963 0 .482.378.964 1.006.964zM18.113 2.288h12.83c.502 0 1.005-.361 1.005-.964 0-.602-.503-.842-1.006-.842h-12.83c-.503 0-1.006.36-1.006.963 0 .602.378.843 1.006.843zM36.477 2.288h4.15c.503 0 1.007-.361 1.007-.964 0-.602-.378-.963-1.007-.963h-4.15c-.504 0-1.007.361-1.007.963 0 .603.378.964 1.007.964zM81.38 146.055H63.016c-.503 0-1.006.361-1.006.963s.378.964 1.006.964H81.38c.504 0 1.007-.362 1.007-.964s-.503-.963-1.007-.963zM56.979 146.055h-5.912c-.503 0-1.006.361-1.006.963s.377.964 1.006.964h5.912c.503 0 1.006-.362 1.006-.964s-.503-.963-1.006-.963zM50.941 140.035c-.503 0-1.006.36-1.006.963 0 .482.377.963 1.006.963h12.83c.503 0 1.006-.361 1.006-.963 0-.482-.377-.963-1.006-.963h-12.83zM69.305 141.84h4.151c.503 0 1.007-.36 1.007-.962 0-.482-.378-.964-1.007-.964h-4.15c-.504 0-1.007.362-1.007.964.126.602.503.963 1.006.963zM108.172 88.38l-5.283-.843c-.503-.12-1.006.24-1.132.722-.126.482.252.963.755 1.084l5.283.843h.125c.503 0 .88-.362.88-.723.252-.481 0-.963-.628-1.083zM113.455 82.239c.125 0 .377 0 .503-.12.377-.241.503-.843.251-1.205l-3.018-4.214c-.252-.361-.88-.482-1.258-.24-.378.24-.503.842-.252 1.203l3.019 4.215c.126.24.377.36.755.36zM123.014 80.192h.126c.503 0 .88-.361.88-.723l.88-5.057c.127-.481-.25-.963-.754-1.083-.503-.12-1.006.24-1.132.722l-.88 5.057c0 .482.377.963.88 1.084zM131.567 85.249c.126 0 .378 0 .503-.12l4.403-2.89c.377-.241.503-.843.251-1.204-.251-.362-.88-.482-1.258-.241l-4.402 2.89c-.377.24-.503.843-.251 1.204.125.24.377.361.754.361zM139.114 93.678l-5.283-.843c-.503-.12-1.006.24-1.132.722-.126.482.252.963.755 1.084l5.283.843h.126c.503 0 .88-.362.88-.723.252-.481-.126-.963-.629-1.083zM130.938 105.718l3.019-.24c.377 0 .629-.241.755-.602l.126-.362c.125-.36 0-.722-.252-.963l-13.333-11.68c-.251-.24-.629-.36-1.006-.12-.377.12-.503.482-.503.843l.126 8.79v8.91a.91.91 0 0 0 .628.843c.378.12.755.12 1.007-.12l2.641-2.288 5.031 10.716c.126.24.252.361.503.482h.378c.126 0 .251 0 .377-.12l5.157-2.168c.503-.241.755-.723.503-1.204l-5.157-10.717zm-.629 12.041l-5.157-10.957c-.125-.24-.377-.482-.629-.482h-.251a.984.984 0 0 0-.629.241l-2.013 1.806V94.641l10.566 9.15-2.767.242c-.252 0-.629.24-.755.481a.988.988 0 0 0 0 .843l5.157 10.957-3.522 1.445zM117.857 100.06c-3.27-1.084-5.534-4.215-5.534-7.466 0-.963.125-1.806.503-2.65.629-1.564 1.635-2.889 3.019-3.852.377-.241.503-.843.251-1.204-.251-.361-.88-.482-1.383-.241-1.636 1.204-3.02 2.77-3.648 4.696-.377 1.084-.63 2.167-.63 3.25 0 4.095 2.768 7.827 6.793 9.272h.377c.378 0 .755-.24.88-.602.127-.481-.125-1.083-.628-1.204zM123.517 85.008c3.27 1.084 5.535 4.214 5.535 7.465 0 .964-.126 1.807-.504 2.65-.125.481.126.963.63 1.204h.377c.377 0 .754-.241.88-.603.377-1.083.63-2.167.63-3.25 0-4.094-2.768-7.827-6.793-9.272-1.384-.482-2.893-.602-4.277-.602-.503 0-.88.482-.88.963 0 .482.503.843 1.006.843 1.006.12 2.264.24 3.396.602z"/>
        <path d="M158.61 79.47a7.065 7.065 0 0 0-4.905-2.409l-7.17-.481.63-9.633h1.634c1.887 0 3.396-1.445 3.396-3.251v-.963c0-1.806-1.51-3.251-3.396-3.251H92.952c-1.886 0-3.396 1.445-3.396 3.25v.964c0 1.806 1.51 3.25 3.396 3.25h1.636l.628 9.634h-16.98c-.503 0-1.006.36-1.006.963 0 .24.251 22.516 20.376 35.159l1.887 27.694h-4.15c-1.888 0-3.523 1.445-3.523 3.371v3.251c0 .482.378.964 1.007.964h56.224c.503 0 1.006-.362 1.006-.964v-3.25c0-1.807-1.51-3.372-3.522-3.372h-4.15l.88-12.523 6.666.482h.503c1.761 0 3.396-.602 4.78-1.686 1.51-1.204 2.39-2.89 2.516-4.696l2.767-37.206c0-2.047-.629-3.853-1.887-5.298zM92.952 65.14c-.754 0-1.509-.601-1.509-1.444v-.963c0-.723.629-1.445 1.51-1.445h55.846c.755 0 1.51.602 1.51 1.445v.963c0 .722-.63 1.445-1.51 1.445H92.952zm-13.71 13.246h16.226l2.138 31.908C81.632 99.578 79.494 82.48 79.242 78.386zm67.293 63.696c.88 0 1.635.722 1.635 1.565v2.288H93.707v-2.288c0-.843.755-1.565 1.635-1.565h51.193zm-6.163-1.806H101.38l-4.906-73.209h48.678l-4.78 73.209zm5.786-57.435l7.044.481c.251 0 .377.12.503.241.125.12.125.361.125.482l-2.767 37.206c0 .24-.125.361-.251.482-.126.12-.378.24-.503.12l-6.793-.482 2.642-38.53zm9.56 38.771c-.127 1.325-.755 2.65-1.888 3.492-1.132.843-2.39 1.325-3.899 1.204l-6.666-.481.126-2.65 6.792.482h.251c.63 0 1.258-.24 1.761-.602.503-.481.88-1.084.88-1.686l2.768-37.206c0-.722-.126-1.324-.629-1.806-.503-.481-1.132-.843-1.76-.843l-7.045-.481.126-2.65 7.17.482c1.383.12 2.767.723 3.647 1.806.88 1.084 1.384 2.288 1.258 3.733l-2.893 37.206zM65.532 37.327c.126.12.377.24.629.24.251 0 .503-.12.629-.24a.916.916 0 0 0 0-1.325C58.488 28.055 47.545 23.72 35.848 23.72c-11.698 0-22.641 4.335-30.943 12.282a.916.916 0 0 0 0 1.325 1.019 1.019 0 0 0 1.384 0c7.924-7.586 18.364-11.8 29.559-11.8 11.32 0 21.76 4.214 29.684 11.8zM13.836 41.18c.377-.362.377-.843.126-1.325-.378-.361-.88-.482-1.384-.12-.629.602-1.258 1.083-1.887 1.685a.916.916 0 0 0 0 1.325c.126.12.378.24.63.24.25 0 .502-.12.628-.24.63-.482 1.258-.963 1.887-1.565z"/>
        <path d="M24.779 35.16h.251c.755-.242 1.51-.482 2.39-.723.503-.12.755-.602.63-1.084-.127-.482-.63-.722-1.133-.602-.88.24-1.635.482-2.515.722-.504.12-.755.723-.63 1.205.252.24.63.481 1.007.481zM18.113 38.17c.754-.362 1.383-.843 2.138-1.205.503-.24.629-.722.377-1.204-.251-.481-.755-.602-1.258-.361-.754.361-1.51.843-2.264 1.204-.503.24-.629.843-.251 1.204.125.241.503.482.754.482.126.12.378 0 .503-.12zM32.703 33.473c.755-.12 1.635-.12 2.39-.12.503 0 .88-.482.88-.963 0-.482-.377-.843-1.006-.843-.88 0-1.76.12-2.641.12-.503 0-.88.482-.88.964.25.602.628.842 1.257.842-.126 0-.126 0 0 0zM42.766 34.076h.251c.378 0 .88-.241.88-.723.126-.482-.25-.963-.754-1.084-.88-.12-1.635-.36-2.516-.36-.503-.121-1.006.24-1.006.722 0 .481.252.963.755.963.754.12 1.635.24 2.39.482zM57.23 40.337c.252 0 .504-.12.755-.361.377-.362.252-.964-.126-1.325-.629-.482-1.383-.963-2.138-1.445-.377-.24-1.006-.12-1.258.24-.251.362-.126.964.252 1.205.629.482 1.383.843 2.012 1.325.126.36.378.36.503.36zM50.06 36.363c.127 0 .252.12.378.12.378 0 .755-.24.88-.481.252-.482 0-.963-.502-1.204a19.834 19.834 0 0 0-2.39-.963c-.503-.12-1.006 0-1.258.481-.126.482.126.964.503 1.204 1.006.241 1.761.482 2.39.843zM54.715 48.645c.251 0 .503-.12.629-.24a.916.916 0 0 0 0-1.325c-5.157-4.937-12.075-7.707-19.496-7.707-7.296 0-14.214 2.77-19.496 7.707a.916.916 0 0 0 0 1.324 1.019 1.019 0 0 0 1.383 0c4.78-4.575 11.32-7.224 18.113-7.224 6.792 0 13.332 2.528 18.112 7.224.252.12.503.24.755.24z"/>
        <path d="M22.263 52.498a.916.916 0 0 0 0 1.324 1.019 1.019 0 0 0 1.384 0c6.792-6.502 17.86-6.502 24.779 0 .126.12.377.241.629.241.251 0 .503-.12.629-.24a.916.916 0 0 0 0-1.325c-7.673-7.225-19.874-7.225-27.42 0zM104.398 114.388c-.503 0-.88.481-.88.963l1.51 19.867c0 .482.502.843.88.843h.126c.503 0 .88-.481.88-.963l-1.51-19.867c0-.482-.502-.964-1.006-.843z"/>
    </g>
</svg>
