<svg xmlns="http://www.w3.org/2000/svg" width="68" height="69" viewBox="0 0 68 69">
    <g fill="#FFF" fill-rule="nonzero">
        <path d="M65.839 34.769H36.511a1.5 1.5 0 1 0 0 3h10.8a3.919 3.919 0 0 0-.293 1.748c.267 4.098-1.097 7.795-3.242 8.792-1.836.854-4.687-.395-7.825-3.408-.09-.086-.193-.145-.291-.219v9.953c2.602 1.438 4.916 1.938 6.856 1.938a10.88 10.88 0 0 0 4.633-1.01c5.265-2.447 8.345-8.949 7.853-16.562a3.971 3.971 0 0 0-.301-1.229H65.84a1.5 1.5 0 0 0-.001-3.003z"/>
        <circle cx="22.559" cy="25.622" r="10.211"/>
        <path d="M21.436 39.113l-2.547-1.47v5.88l2.547-1.469 1.479-.855 1.483.857 2.546 1.467v-5.88l-2.546 1.47-1.481.856zM8.191 68.831c.46-2.623 1.039-5.097 1.766-7.345V45.078C5.029 50.302 1.619 58.517 0 68.831h8.191z"/>
        <path d="M30.725 41.105l-3.121 4.729-4.687 7.104-4.688-7.104-3.159-4.786c-.183.1-.363.202-.544.311a20.621 20.621 0 0 0-3.347 2.512v24.963h23.249V57.829a.04.04 0 0 1 .007.017V43.789a20.835 20.835 0 0 0-3.251-2.418c-.153-.094-.307-.18-.459-.266zm-7.916 24.096a1.124 1.124 0 1 1 .001-2.247 1.124 1.124 0 0 1-.001 2.247zm0-6.002a1.124 1.124 0 1 1 .001-2.247 1.124 1.124 0 0 1-.001 2.247zM45.26 28.562c-.557-.369-1.278-.582-2.165-.639a8.256 8.256 0 0 0-2.611.25c-.854.222-1.593.575-2.224 1.056-.629.48-.963 1.074-.999 1.777-.038.63.223 1.138.777 1.526.557.388 1.249.666 2.082.833a9.815 9.815 0 0 0 2.695.14 8.086 8.086 0 0 0 2.694-.666 5.674 5.674 0 0 0 2.085-1.558c.556-.666.833-1.5.833-2.5V12.729L62.204 7.12l-.057 16.109c-.628-.481-1.426-.769-2.387-.862a8.168 8.168 0 0 0-2.778.195c-.889.221-1.649.574-2.279 1.055-.629.482-.927 1.036-.889 1.667.036.741.334 1.343.889 1.806.556.463 1.259.797 2.111.999.851.204 1.759.28 2.721.224a7.11 7.11 0 0 0 2.668-.669 5.85 5.85 0 0 0 2.054-1.609c.556-.685.835-1.527.835-2.528V.784L45.26 8.896v19.666z"/>
    </g>
</svg>
