<svg xmlns="http://www.w3.org/2000/svg" width="57" height="81" viewBox="0 0 57 81">
    <g fill="#FFF" fill-rule="nonzero">
        <path d="M19.772 80.138l2.316-.517-.09-.086c-.178-.258-.356-.517-.356-.862L3.384 2.413c0-.173-.089-.345-.089-.517V1.81c0-.173 0-.345.09-.431l-2.316.517c-.535.086-.98.603-.89 1.292l18.168 76.26c.178.518.89.863 1.425.69zM6.145.862a.91.91 0 0 0-.98.172c-.267.172-.445.517-.445.776v.258l1.603 6.635 22.8 4.481-1.425-5.429c-.089-.344-.356-.689-.801-.775L6.145.862zm15.942 7.41c-.089.259-.356.517-.623.517h-.178L15.14 7.066c-.357-.086-.535-.43-.446-.776.09-.344.446-.517.802-.43l6.145 1.637c.356 0 .535.43.445.775zM41.592 66.179l-1.425-6.118L20.93 70.487l1.87 7.928c0 .172.09.258.178.43a1.18 1.18 0 0 0 1.158.432h.089c.09 0 .267-.087.356-.173l16.566-11.719c.445-.345.534-.775.445-1.206zm-8.55 4.394c-.178 0-.267 0-.445-.086-.535-.172-.98-.775-1.158-1.637-.267-1.034-.089-2.413.802-2.93.356-.172.712-.172 1.068-.086.535.259.98.776 1.158 1.637.267 1.034.09 2.327-.712 2.844-.268.258-.535.258-.713.258zM32.864 51.444c-2.76 0-5.076-2.24-5.076-4.912V26.11c0-2.069 1.335-3.792 3.206-4.567l-1.603-6.894-22.8-4.48 14.072 59.026L39.9 58.682l-1.692-7.325h-5.344v.087z"/>
        <path d="M32.864 49.29h21.108c1.603 0 2.85-1.207 2.85-2.758V26.11c0-1.551-1.247-2.758-2.85-2.758H32.864c-1.603 0-2.85 1.207-2.85 2.758v20.422c0 1.465 1.336 2.757 2.85 2.757zm3.384-22.06c2.138-1.207 4.72-1.293 6.947-.086a.585.585 0 0 0 .535 0c2.226-1.207 4.81-1.12 6.947.086 2.226 1.292 3.473 3.533 3.473 5.946 0 2.24-.712 4.308-1.96 6.118-1.87 2.585-4.185 4.739-6.946 6.376l-.713.431c-.267.172-.623.259-.98.259-.356 0-.712-.087-.98-.259l-.89-.43c-2.76-1.638-5.076-3.792-6.947-6.377-1.336-1.81-1.959-3.964-1.959-6.118 0-2.5 1.247-4.74 3.473-5.946z"/>
        <path d="M34.378 35.33h3.028l1.96-3.878c.089-.258.356-.345.623-.345s.445.087.623.345l3.029 5.515 2.404-3.188c.09-.173.267-.259.535-.259.178 0 .356.086.534.173l1.781 1.723h3.652c.178-.69.267-1.465.267-2.154 0-2.068-1.069-3.878-2.85-4.912-1.781-1.034-3.83-1.034-5.61-.086a2.143 2.143 0 0 1-1.782 0c-.89-.431-1.781-.69-2.761-.69-.98 0-1.96.259-2.85.776-1.781 1.034-2.85 2.844-2.85 4.912 0 .69.089 1.378.267 2.068 0 .086 0 0 0 0z"/>
        <path d="M48.45 36.622a.692.692 0 0 1-.445-.172l-1.425-1.379-2.583 3.447c-.09.172-.356.259-.535.259h-.089a.602.602 0 0 1-.534-.345L39.9 33.176l-1.603 3.102c-.09.258-.356.344-.624.344h-2.939c.268.69.624 1.293 1.07 1.896 1.78 2.413 4.007 4.48 6.59 6.032l.712.43a.585.585 0 0 0 .535 0l.712-.43c2.583-1.551 4.81-3.533 6.59-6.032.446-.603.802-1.292 1.07-1.896H48.45z"/>
    </g>
</svg>
