<svg xmlns="http://www.w3.org/2000/svg" width="77" height="64" viewBox="0 0 77 64">
    <g fill="#FFF" fill-rule="nonzero">
        <path d="M36.58 60.151c0 .855-.611 1.567-1.355 1.614l-24.618-5.127h-.175c-.83 0-1.53-.76-1.53-1.662V1.994c0-.855.612-1.567 1.356-1.614l24.617 5.127h.175c.831 0 1.53.76 1.53 1.662V60.15zM68.02 55.024c0 .902-.656 1.661-1.53 1.661h-.175l-24.618 5.128c-.787-.095-1.356-.76-1.356-1.615V7.121c0-.902.656-1.661 1.53-1.661h.176L52.76 3.228V20.7c0 .521.655.854 1.005.474l4.198-4.843c1.4 1.615 2.755 3.181 4.11 4.748 0 .047.044.047.044.095.175.19.437.19.612.095.219-.095.394-.285.394-.57V1.044L66.62.332c.787.095 1.355.807 1.355 1.614v53.077h.044z"/>
        <path d="M76.765 12.913v47.143c0 2.041-1.53 3.703-3.41 3.703H52.453l14.255-2.943c2.842-.095 5.116-2.659 5.116-5.745V9.211h1.53c1.88 0 3.411 1.66 3.411 3.702zM24.425 63.76H3.567c-1.88 0-3.41-1.663-3.41-3.704V12.913c0-2.041 1.53-3.703 3.41-3.703h1.53v45.814c0 3.086 2.275 5.65 5.073 5.744l14.255 2.991z"/>
    </g>
</svg>
