<svg xmlns="http://www.w3.org/2000/svg" width="36" height="64" viewBox="0 0 36 64">
    <path fill="#FFF" fill-rule="nonzero" d="M36 23v17c0 5.5-4.5 10-10 10h-6v10h7c1.1 0 2 .9 2 2s-.9 2-2 2H9c-1.1 0-2-.9-2-2s.9-2 2-2h7V50h-6C4.5 50 0 45.5 0 40V23c0-1.1.9-2 2-2s2 .9 2 2v17c0 3.3 2.7 6 6 6h16c3.3 0 6-2.7 6-6V23c0-1.1.9-2 2-2s2 .9 2 2zm-8-1H8v5h20v-5zm0 7H8v5h20v-5zm0-25c0-2.2-1.8-4-4-4H12C9.8 0 8 1.8 8 4v2h20V4zM12 42h12c2.2 0 4-1.8 4-4v-2H8v2c0 2.2 1.8 4 4 4zm16-27H8v5h20v-5zm0-7H8v5h20V8z"/>
</svg>
