<svg xmlns="http://www.w3.org/2000/svg" width="111" height="69" viewBox="0 0 111 69">
    <g fill="#FFF" fill-rule="nonzero">
        <path d="M110.999 35.6l-6.707-4.082-9.485-14.675-23.278.02L28.659.34c-.87-.335-1.875-.16-2.545.442L21.491 4.95c-.002 0-.002.002-.004.004a1.968 1.968 0 0 0-.129.128l-.03.032a1.8 1.8 0 0 0-.114.137c-.006.01-.015.02-.022.03a1.94 1.94 0 0 0-.083.123l-.025.041a2.44 2.44 0 0 0-.16.342l-.016.05a1.288 1.288 0 0 0-.051.185 1.43 1.43 0 0 0-.034.212c-.007.06-.01.122-.01.185V18.926c0 1.151 1.035 2.086 2.312 2.086s2.312-.935 2.312-2.086v-9.22l23.71 10.057 10.977 20.48v5.775H2.313c-1.277 0-2.312.935-2.312 2.086 0 1.15 1.035 2.085 2.312 2.085h2.313v8.386c0 1.151 1.035 2.085 2.312 2.085h7.166c1.07 4.756 5.737 8.334 11.33 8.334 5.633 0 10.323-3.633 11.35-8.438h42.048c1.023 4.805 5.714 8.438 11.348 8.438 5.633 0 10.325-3.633 11.351-8.438h9.42L111 35.599zm-12.113-4.17H83.25V21.02l8.901-.007 6.735 10.418zM78.622 21.026v10.406h-4.607l.007-10.403 4.6-.003zm-22.827 1.557l4.329 1.835v6.243l-4.33-8.078zm7.625-1.372L27.087 5.8l1.192-1.073 41.089 15.836v25.456h-4.62V23.095c0-.807-.515-1.542-1.328-1.885zM14.104 56.49H9.25v-6.301h9.324c-2.26 1.502-3.89 3.73-4.47 6.3zm11.33 8.337c-3.825 0-6.938-2.805-6.938-6.252 0-3.447 3.113-6.252 6.938-6.252 3.826 0 6.937 2.805 6.937 6.252 0 3.447-3.111 6.252-6.937 6.252zm11.305-8.44c-.6-2.529-2.215-4.715-4.446-6.198h37.074v6.197H36.74zm53.44 8.44c-3.823 0-6.936-2.805-6.936-6.252 0-3.447 3.113-6.252 6.937-6.252 3.828 0 6.937 2.805 6.937 6.252 0 3.447-3.11 6.252-6.937 6.252zm11.308-8.44c-1.118-4.702-5.752-8.231-11.307-8.231-5.552 0-10.19 3.529-11.304 8.23h-4.881l.017-20.787h28.722l3.637 2.214-.013 6.069h-2.3c-1.277 0-2.313.934-2.313 2.088 0 1.148 1.036 2.082 2.313 2.082h2.293l-.017 8.334h-4.847z"/>
        <path d="M90.18 56.49c-1.277 0-2.31.934-2.31 2.085 0 1.151 1.033 2.085 2.31 2.085 1.277 0 2.314-.934 2.314-2.085 0-1.151-1.037-2.085-2.314-2.085zM25.434 56.49c-1.277 0-2.312.934-2.312 2.085 0 1.151 1.034 2.085 2.312 2.085 1.277 0 2.311-.934 2.311-2.085 0-1.151-1.034-2.085-2.311-2.085zM11.584 33.557c-.006.272-.006 2.697 1.931 4.482.857.787 2.417 1.728 4.985 1.728 2.547 0 4.102-.94 4.957-1.728 1.907-1.753 1.963-4.143 1.96-4.537V25.18c0-1.151-1.035-2.084-2.312-2.084s-2.312.933-2.312 2.084l-.002 8.335v.034a2.754 2.754 0 0 1-.349 1.215c-.247.414-.672.836-1.942.836-1.287 0-1.718-.432-1.95-.809a2.594 2.594 0 0 1-.342-1.172v.028h-.007c.004-.043.007-.087.007-.132 0-1.15-1.035-2.083-2.312-2.083s-2.312.932-2.312 2.083l.002.043h-.002z"/>
    </g>
</svg>
